<?xml version="1.0" encoding="UTF-8"?>
<svg width="30px" height="26px" viewBox="0 0 30 26" version="1.1" xmlns="http://www.w3.org/2000/svg" xmlns:xlink="http://www.w3.org/1999/xlink">
    <!-- Generator: Sketch 48.2 (47327) - http://www.bohemiancoding.com/sketch -->
    <title>Group 25</title>
    <desc>Created with Sketch.</desc>
    <defs></defs>
    <g id="Desktop-HD-Copy-2" stroke="none" stroke-width="1" fill="none" fill-rule="evenodd" transform="translate(-863.000000, -2660.000000)">
        <g id="Group-29" transform="translate(203.000000, 2313.000000)">
            <g id="Group-28" transform="translate(660.000000, 210.000000)">
                <g id="Group-25" transform="translate(0.000000, 137.000000)">
                    <path d="M17.7165354,25.2480315 C27.0350294,25.2480315 29.5,22.5861111 29.5,12.8740157 C29.5,3.1619204 27.0350294,0.5 17.7165354,0.5 C11.4464449,0.5 8.07396356,0.834116884 5.3861734,1.98713939 C2.12403374,3.3865494 0.5,5.98256238 0.5,10.3937008 C0.5,19.4265454 7.63590817,25.2480315 17.7165354,25.2480315 Z" id="Oval-2" stroke="#FF9127" opacity="0.757869112"></path>
                    <g id="noun_1283379_cc" transform="translate(8.000000, 7.000000)" fill="#133692" fill-rule="nonzero">
                        <g id="Group" transform="translate(0.000000, 0.153957)">
                            <path d="M12.9679625,0.0907006897 C12.8065438,0.113974806 12.6577061,0.191051473 12.5455487,0.30945069 C10.1277487,2.73246207 7.70881421,5.14275517 5.28908317,7.56591379 L1.44963121,4.36763793 C1.25597068,4.17052744 0.967021112,4.10079936 0.704777642,4.18789304 C0.442534172,4.27498672 0.25270705,4.50372133 0.215441703,4.77752462 C0.178176356,5.0513279 0.299968305,5.32247469 0.529396724,5.47648621 L4.87422455,9.09717586 C5.16178518,9.33506055 5.58303504,9.31546729 5.84727283,9.05191724 C8.42090731,6.47275517 10.9956039,3.90914276 13.5714108,1.32776966 C13.7960625,1.10971047 13.8551568,0.771981721 13.7178958,0.49059656 C13.5806347,0.209211399 13.2780999,0.0478871387 12.9679625,0.0907006897 Z" id="Shape"></path>
                        </g>
                    </g>
                </g>
            </g>
        </g>
    </g>
</svg>