<?xml version="1.0" encoding="UTF-8"?>
<svg width="144px" height="107px" viewBox="0 0 144 107" version="1.1" xmlns="http://www.w3.org/2000/svg" xmlns:xlink="http://www.w3.org/1999/xlink">
    <!-- Generator: Sketch 48.2 (47327) - http://www.bohemiancoding.com/sketch -->
    <title>Group 38</title>
    <desc>Created with Sketch.</desc>
    <defs>
        <linearGradient x1="50%" y1="0%" x2="50%" y2="100%" id="linearGradient-1">
            <stop stop-color="#001F81" offset="0%"></stop>
            <stop stop-color="#183C97" offset="100%"></stop>
        </linearGradient>
    </defs>
    <g id="Desktop-HD-Copy-2" stroke="none" stroke-width="1" fill="none" fill-rule="evenodd" transform="translate(-298.000000, -1921.000000)">
        <g id="Group-20" transform="translate(210.000000, 1921.000000)">
            <g id="Group-17" transform="translate(88.000000, 0.000000)">
                <g id="Group-38">
                    <path d="M72,107 C111.764502,107 144,80.8757511 144,40.9351753 C144,0.994599582 111.764502,0 72,0 C32.235498,0 0,0.994599582 0,40.9351753 C0,80.8757511 32.235498,107 72,107 Z" id="Oval-3" fill="#FF9127" opacity="0.152117301"></path>
                    <g id="noun_1245750_cc" transform="translate(37.000000, 28.000000)" fill="url(#linearGradient-1)" fill-rule="nonzero">
                        <path d="M19.001,15.951 L27.712,7.24 C27.561,6.995 27.402,6.756 27.237,6.522 L18.311,15.447 L19.001,15.951 Z" id="Shape"></path>
                        <path d="M17.524,14.873 L26.653,5.743 C26.475,5.524 26.291,5.313 26.1,5.105 L16.836,14.37 L17.524,14.873 Z" id="Shape"></path>
                        <path d="M16.144,11.145 L24.04,3.25 C23.81,3.081 23.575,2.917 23.335,2.762 L16.145,9.952 L16.145,11.145 L16.144,11.145 Z" id="Shape"></path>
                        <path d="M16.144,8.59 L22.486,2.25 C22.227,2.107 21.964,1.974 21.696,1.847 L16.144,7.398 L16.144,8.59 Z" id="Shape"></path>
                        <path d="M16.144,6.036 L20.745,1.435 C20.455,1.323 20.159,1.223 19.86,1.129 L16.144,4.844 L16.144,6.036 Z" id="Shape"></path>
                        <path d="M16.144,3.481 L18.788,0.837 C18.458,0.762 18.122,0.702 17.784,0.65 L16.144,2.29 L16.144,3.481 Z" id="Shape"></path>
                        <path d="M16.144,13.699 L25.427,4.416 C25.223,4.221 25.016,4.031 24.801,3.849 L16.144,12.506 L16.144,13.699 Z" id="Shape"></path>
                        <path d="M16.554,0.517 C16.417,0.508 16.281,0.503 16.144,0.498 L16.144,0.928 L16.554,0.517 Z" id="Shape"></path>
                        <path d="M20.478,17.03 L28.594,8.914 C28.473,8.641 28.344,8.372 28.206,8.109 L19.788,16.527 L20.478,17.03 Z" id="Shape"></path>
                        <path d="M23.432,19.188 L29.702,12.918 C29.659,12.571 29.607,12.227 29.54,11.888 L22.744,18.684 L23.432,19.188 Z" id="Shape"></path>
                        <path d="M21.954,18.108 L29.272,10.791 C29.186,10.485 29.092,10.183 28.986,9.886 L21.265,17.607 L21.954,18.108 Z" id="Shape"></path>
                        <path d="M26.385,21.347 L29.29,18.441 C29.43,17.943 29.542,17.433 29.626,16.915 L25.697,20.844 L26.385,21.347 Z" id="Shape"></path>
                        <path d="M24.908,20.268 L29.788,15.388 C29.801,15.142 29.809,14.895 29.809,14.644 C29.809,14.49 29.803,14.338 29.798,14.185 L24.219,19.765 L24.908,20.268 Z" id="Shape"></path>
                        <path d="M27.597,22.231 C27.929,21.71 28.228,21.168 28.491,20.604 L27.174,21.921 L27.597,22.231 Z" id="Shape"></path>
                        <rect id="Rectangle-path" x="42.163" y="11.164" width="3.667" height="12.001"></rect>
                        <rect id="Rectangle-path" x="47.853" y="12.165" width="3.666" height="11.001"></rect>
                        <rect id="Rectangle-path" x="53.541" y="14.166" width="3.666" height="9"></rect>
                        <rect id="Rectangle-path" x="59.23" y="9.163" width="3.666" height="14.002"></rect>
                        <rect id="Rectangle-path" x="64.919" y="9.163" width="3.666" height="14.002"></rect>
                        <polygon id="Shape" points="68.402 31.386 49.15 40.845 42.143 36.604 29.505 42.348 9.03 44.155 0.967 49.886 17.206 49.886 34.127 49.886 51.423 49.886 57.29 49.886 68.344 49.886"></polygon>
                        <path d="M15.625,28.768 C7.816,28.768 1.463,22.416 1.463,14.606 C1.463,6.975 7.53,0.737 15.093,0.457 L15.093,14.467 L15.1,14.467 L26.937,23.116 C26.936,23.116 26.936,23.116 26.936,23.116 C24.351,26.546 20.242,28.768 15.625,28.768 Z" id="Shape"></path>
                    </g>
                </g>
            </g>
        </g>
    </g>
</svg>