<?xml version="1.0" encoding="UTF-8"?>
<svg width="556px" height="338px" viewBox="0 0 556 338" version="1.1" xmlns="http://www.w3.org/2000/svg" xmlns:xlink="http://www.w3.org/1999/xlink">
    <!-- Generator: Sketch 48.2 (47327) - http://www.bohemiancoding.com/sketch -->
    <title>Group 6</title>
    <desc>Created with Sketch.</desc>
    <defs>
        <linearGradient x1="50%" y1="0%" x2="50%" y2="100%" id="linearGradient-1">
            <stop stop-color="#001F81" offset="0%"></stop>
            <stop stop-color="#183C97" offset="100%"></stop>
        </linearGradient>
        <rect id="path-2" x="260" y="174" width="1" height="95"></rect>
        <mask id="mask-3" maskContentUnits="userSpaceOnUse" maskUnits="objectBoundingBox" x="0" y="0" width="1" height="95" fill="white">
            <use xlink:href="#path-2"></use>
        </mask>
        <rect id="path-4" x="12" y="38" width="8" height="19" rx="4"></rect>
        <rect id="path-5" x="12" y="75" width="8" height="19" rx="4"></rect>
        <circle id="path-6" cx="27.5" cy="27.5" r="27.5"></circle>
        <circle id="path-7" cx="27.5" cy="27.5" r="17.5"></circle>
        <rect id="path-8" x="355" y="279" width="95" height="1"></rect>
        <mask id="mask-9" maskContentUnits="userSpaceOnUse" maskUnits="objectBoundingBox" x="0" y="0" width="95" height="1" fill="white">
            <use xlink:href="#path-8"></use>
        </mask>
        <circle id="path-10" cx="34" cy="34" r="34"></circle>
        <circle id="path-11" cx="34" cy="34" r="34"></circle>
    </defs>
    <g id="Desktop-HD-Copy-2" stroke="none" stroke-width="1" fill="none" fill-rule="evenodd" transform="translate(-192.000000, -3955.000000)">
        <g id="Group-6" transform="translate(179.000000, 3842.000000)">
            <g id="Group-36">
                <path d="M298.5,451 C419.174218,451 517,372.13895 517,251.57067 C517,131.002389 419.174218,128 298.5,128 C177.825782,128 80,131.002389 80,251.57067 C80,372.13895 177.825782,451 298.5,451 Z" id="Oval-3" fill="url(#linearGradient-1)" opacity="0.0500000007"></path>
                <use id="Rectangle-23" stroke="#133692" mask="url(#mask-3)" stroke-width="2" stroke-dasharray="3,7" xlink:href="#path-2"></use>
                <path d="M325.765329,437.744215 C446.439547,437.744215 513.307986,532.081349 513.307986,411.513069 C513.307986,290.944789 386.753702,133.517546 266.079484,133.517546 C145.405267,133.517546 68.5719139,28.3617993 68.5719139,148.930079 C68.5719139,269.49836 205.091111,437.744215 325.765329,437.744215 Z" id="Oval-3" fill="url(#linearGradient-1)" opacity="0.0500000007" transform="translate(290.939950, 281.947396) rotate(-33.000000) translate(-290.939950, -281.947396) "></path>
                <g id="BCH" opacity="0.66723279" transform="translate(326.000000, 181.000000)">
                    <path d="M9.98407463,5.02469652 C9.98407463,7.77240796 7.75666169,9.9998209 5.00895025,9.9998209 C2.26123881,9.9998209 0.0338258706,7.77240796 0.0338258706,5.02469652 C0.0338258706,2.27698507 2.26123881,0.0495721393 5.00895025,0.0495721393 C7.75666169,0.0495721393 9.98407463,2.27698507 9.98407463,5.02469652" id="Fill-511" stroke="#133692" stroke-width="0.5" fill="#FF9127"></path>
                    <path d="M6.84940796,5.14890547 C6.91677114,5.27845771 6.92970647,5.42646766 6.88567662,5.56572139 C6.84174627,5.70502488 6.74627363,5.81880597 6.61662189,5.88616915 L5.31975622,6.56069652 L4.81527861,5.59069652 L6.11214428,4.91616915 C6.37955721,4.77711443 6.71030348,4.88149254 6.84940796,5.14890547 M5.69537811,3.27716418 C5.83463184,3.32114428 5.94846269,3.41671642 6.01582587,3.54626866 C6.1548806,3.81363184 6.05035323,4.14442786 5.78318905,4.28353234 C5.7831393,4.28353234 5.78308955,4.28353234 5.78308955,4.28353234 L4.48622388,4.9580597 L3.98164677,3.9880597 L5.27861194,3.31348259 C5.40811443,3.24616915 5.55612438,3.23323383 5.69537811,3.27716418 M5.91010448,2.59721393 C5.5891592,2.4959204 5.24801493,2.52562189 4.94950746,2.68089552 L4.77796517,2.77014925 L4.35846269,1.96358209 L3.74204478,2.28412935 L4.16159701,3.09069652 L3.63542786,3.36437811 L3.21587562,2.55776119 L3.06826368,2.63457711 L2.47010448,2.94567164 L2.87448259,3.72318408 L2.14557711,4.10228856 L2.5048806,4.79313433 L3.23383582,4.41402985 L4.54164677,6.92845771 L3.81269154,7.30756219 L4.17204478,7.99840796 L4.90095025,7.61930348 L5.24224378,8.27552239 L5.38990547,8.19875622 L5.98801493,7.88761194 L5.63154726,7.20228856 L6.15900995,6.9279602 L6.51547761,7.61333333 L7.12935821,7.29402985 L6.77289055,6.60865672 L6.94567662,6.51880597 C7.05582587,6.46149254 7.15537811,6.38960199 7.24219403,6.30562189 C7.39050249,6.16199005 7.50179602,5.98288557 7.56567662,5.78039801 C7.6670199,5.45950249 7.63726866,5.11840796 7.48199502,4.81985075 C7.31866169,4.5058209 7.04040299,4.29004975 6.72547761,4.19567164 C6.82920896,3.88348259 6.81189552,3.53144279 6.64846269,3.21721393 C6.49318905,2.91865672 6.2309005,2.69850746 5.91010448,2.59721393" id="Fill-512" fill="#FFFFFF"></path>
                </g>
                <g id="LTC" opacity="0.66723279" transform="translate(390.000000, 147.000000)">
                    <path d="M4.97834328,0.0386666667 C2.23063184,0.0386666667 0.00321890547,2.2660796 0.00321890547,5.01379104 C0.00321890547,7.76150249 2.23063184,9.98891542 4.97834328,9.98891542 C7.72605473,9.98891542 9.95346766,7.76150249 9.95346766,5.01379104 C9.95346766,2.2660796 7.72605473,0.0386666667 4.97834328,0.0386666667" id="Fill-491" fill="#133692"></path>
                    <path d="M4.97834328,0.453268657 C7.4930199,0.453268657 9.53889055,2.4991393 9.53889055,5.01381592 C9.53889055,7.52844279 7.4930199,9.57431343 4.97834328,9.57431343 C2.46366667,9.57431343 0.41779602,7.52844279 0.41779602,5.01381592 C0.41779602,2.4991393 2.46366667,0.453268657 4.97834328,0.453268657" id="Fill-492" fill="#FFFFFF"></path>
                    <path d="M8.11357214,3.16512438 C8.00332338,2.97840796 7.87397015,2.8 7.72745274,2.63129353 L2.5958607,7.76288557 C2.76456716,7.90935323 2.94297512,8.03875622 3.12969154,8.14900498 L8.11357214,3.16512438 Z" id="Fill-493" fill="#FF9127" opacity="0.538439764"></path>
                    <path d="M7.30538308,2.21705473 C7.13319403,2.07342289 6.95075622,1.94849751 6.76085572,1.84168159 L1.80622886,6.79625871 C1.91304478,6.98620896 2.03797015,7.16859701 2.18165174,7.34078607 L7.30538308,2.21705473 Z" id="Fill-494" fill="#FF9127" opacity="0.538439764"></path>
                    <path d="M6.18578607,1.58036816 C5.94324876,1.49529353 5.69344776,1.43743284 5.44091045,1.40529353 L1.36986567,5.47638806 C1.40205473,5.72882587 1.45981592,5.97867662 1.5449403,6.22121393 L6.18578607,1.58036816 Z" id="Fill-495" fill="#FF9127" opacity="0.538439764"></path>
                    <path d="M4.61670149,1.39319403 C3.80938806,1.47334328 3.02376617,1.82234826 2.40535821,2.44075622 C1.78695025,3.05916418 1.43789552,3.84483582 1.35774627,4.65214925 L4.61670149,1.39319403 Z" id="Fill-496" fill="#FF9127" opacity="0.538439764"></path>
                    <path d="M8.57447264,4.46052736 C8.53656219,4.21286567 8.47263184,3.96858706 8.38352736,3.73152239 L3.69606468,8.41893532 C3.93312935,8.5080398 4.17740796,8.5720199 4.42506965,8.6098806 L8.57447264,4.46052736 Z" id="Fill-497" fill="#FF9127" opacity="0.538439764"></path>
                    <path d="M8.60758706,5.26371144 L5.22828358,8.64301493 C6.07450249,8.58510448 6.90450249,8.23371144 7.55136816,7.58679602 C8.19828358,6.9398806 8.54967662,6.1099801 8.60758706,5.26371144" id="Fill-498" fill="#FF9127" opacity="0.538439764"></path>
                    <polygon id="Fill-499" fill="#F8F9F7" points="4.57496517 6.28587065 4.78804975 4.75422886 6.13307463 3.78616915 6.13307463 2.85746269 4.93168159 3.72189055 5.178 1.95139303 3.70804975 1.95139303 3.39267662 4.82920398 2.45670647 5.50263682 2.45670647 6.43208955 3.28212935 5.8380597 3.10501493 7.45427861 4.57496517 7.45427861 7.91456716 7.45427861 7.91456716 6.28587065"></polygon>
                    <path d="M3.22983582,7.34240299 L7.80272139,7.34240299 L7.80272139,6.39772637 L4.44640299,6.39772637 L4.68386567,4.69140796 L6.02127861,3.72887065 L6.02127861,3.07578607 L4.7848607,3.96533831 L5.04948756,2.06324876 L3.80839303,2.06324876 L3.49849254,4.89091045 L2.56859204,5.56001493 L2.56859204,6.21374627 L3.42073134,5.60046269 L3.22983582,7.34240299 Z M8.02640299,7.56613433 L2.98023383,7.56613433 L3.14361692,6.07563682 L2.3448607,6.65041294 L2.3448607,5.44533831 L3.2869005,4.76752736 L3.60779602,1.83951741 L5.30655224,1.83951741 L5.07839303,3.47847264 L6.2449602,2.63921891 L6.2449602,3.84344776 L4.89217413,4.81702985 L4.70351741,6.17404478 L8.02640299,6.17404478 L8.02640299,7.56613433 Z" id="Fill-500" fill="#133692"></path>
                </g>
                <g id="BTC" opacity="0.66723279" transform="translate(124.000000, 171.000000)">
                    <path d="M10,5 C10,7.76145 7.76145,10 5,10 C2.23855,10 0,7.76145 0,5 C0,2.23855 2.23855,0 5,0 C7.76145,0 10,2.23855 10,5" id="Fill-504" stroke="#133692" stroke-width="0.5" fill="#FF9127"></path>
                    <path d="M5.78620329,6.36341892 C5.74583423,6.49534529 5.6550159,6.60405675 5.53048433,6.66952749 C5.40595277,6.73509204 5.26270771,6.74953687 5.12703486,6.71023567 L3.76881123,6.3168953 L4.0714104,5.32906554 L5.42953756,5.72245281 L5.42958579,5.72245281 C5.709613,5.80354086 5.86964233,6.0910775 5.78620329,6.36341892 M6.2442981,4.33903154 C6.31162811,4.46012428 6.32648315,4.59941376 6.28611409,4.73138703 C6.20267504,5.00363466 5.90682817,5.15915113 5.62694565,5.07820378 L5.62689742,5.07820378 L4.26872203,4.68486341 L4.57122473,3.69703365 L5.92944835,4.09037402 C6.0651212,4.12967523 6.17691987,4.2179388 6.2442981,4.33903154 M6.85229381,4.01918162 C6.69703931,3.74018056 6.43934289,3.5366397 6.12675998,3.44612499 L5.94705254,3.3941142 L6.19862367,2.57272834 L5.55315274,2.38578966 L5.30158162,3.20717552 L4.75049809,3.04757885 L5.00211745,2.22619299 L4.84748995,2.18140462 L4.22107014,2 L3.97856638,2.79174581 L3.21517149,2.57066479 L2.99972513,3.27414703 L3.76312002,3.49527494 L2.97884125,6.05585649 L2.21544636,5.83477547 L2,6.53830461 L2.76334666,6.75933873 L2.55870397,7.42759995 L2.71328323,7.47238832 L3.33970305,7.65379294 L3.55346134,6.95589166 L4.10584709,7.11586352 L3.8920888,7.8138117 L4.53495527,8 L4.74871356,7.30205182 L4.929675,7.3544378 C5.04504274,7.38782976 5.16287024,7.40438504 5.27997428,7.40438504 C5.48013152,7.40438504 5.67840777,7.35603236 5.85941743,7.26078087 C6.14634163,7.10981358 6.35561447,6.8592801 6.44874787,6.55523508 C6.54665611,6.23543206 6.49832899,5.90690585 6.34259219,5.63648728 C6.62532032,5.4930238 6.85060573,5.24319381 6.94861044,4.92325009 C7.04174384,4.61920507 7.00750007,4.29813577 6.85229381,4.01918162" id="Fill-505" fill="#FFFFFF"></path>
                </g>
                <g id="XRP" opacity="0.66723279" transform="translate(114.000000, 303.000000)">
                    <path d="M4.99733831,0.0495721393 C2.24962687,0.0495721393 0.0222139303,2.27698507 0.0222139303,5.02469652 C0.0222139303,7.77240796 2.24962687,9.9998209 4.99733831,9.9998209 C7.74504975,9.9998209 9.97246269,7.77240796 9.97246269,5.02469652 C9.97246269,2.27698507 7.74504975,0.0495721393 4.99733831,0.0495721393" id="Fill-513" fill="#133692"></path>
                    <path d="M4.99733831,9.58087065 C2.4810199,9.58087065 0.441169154,7.5410199 0.441169154,5.02470149 C0.441169154,2.50838308 2.4810199,0.468532338 4.99733831,0.468532338 C7.51365672,0.468532338 9.55350746,2.50838308 9.55350746,5.02470149 C9.55350746,7.5410199 7.51365672,9.58087065 4.99733831,9.58087065" id="Fill-514" fill="#FFFFFF"></path>
                    <path d="M6.07192537,5.57179104 C6.00356716,5.57179104 5.93640299,5.57696517 5.87083085,5.58686567 C5.67466169,5.41985075 5.52321891,5.21238806 5.53650249,4.97412935 C5.54685075,4.78845771 5.63351741,4.63378109 5.75794527,4.50587065 C5.84789552,4.52492537 5.9410796,4.53512438 6.03670149,4.53512438 C6.77655224,4.53512438 7.37630348,3.93532338 7.37630348,3.19547264 C7.37630348,2.45562189 6.77655224,1.8558209 6.03670149,1.8558209 C5.296801,1.8558209 4.69704975,2.45562189 4.69704975,3.19547264 C4.69704975,3.53945274 4.826801,3.85308458 5.03988557,4.09029851 C5.01038308,4.26746269 4.94575622,4.4239801 4.82043284,4.50572139 C4.68685075,4.59283582 4.42212438,4.60651741 4.13371642,4.58731343 C3.93784577,4.09039801 3.45381592,3.73860697 2.88734826,3.73860697 C2.14749751,3.73860697 1.54769652,4.33835821 1.54769652,5.07825871 C1.54769652,5.81810945 2.14749751,6.41791045 2.88734826,6.41791045 C3.49660199,6.41791045 4.01048259,6.01104478 4.17306965,5.45427861 C4.40804478,5.41840796 4.61998507,5.42159204 4.73227363,5.51049751 C4.87491045,5.62338308 4.94734826,5.86462687 4.98078109,6.13467662 C4.82451244,6.35383085 4.73227363,6.62179104 4.73227363,6.91144279 C4.73227363,7.65129353 5.33207463,8.25109453 6.07192537,8.25109453 C6.81182587,8.25109453 7.41157711,7.65129353 7.41157711,6.91144279 C7.41157711,6.17159204 6.81182587,5.57179104 6.07192537,5.57179104" id="Fill-515" fill="#FF9127"></path>
                </g>
                <g id="ETC" opacity="0.66723279" transform="translate(183.000000, 191.000000)">
                    <polygon id="Fill-612" fill="#FFFFFF" points="2.88888889 5.77777778 5.11111111 6.88552044 5.11111111 8.66666667"></polygon>
                    <polygon id="Fill-613" fill="#FFFFFF" points="7.33333333 5.77777778 5.11111111 8.66666667 5.11111111 6.88552044"></polygon>
                    <path d="M5,0 C2.23855,0 0,2.23855 0,5 C0,7.76145 2.23855,10 5,10 C7.7614,10 10,7.76145 10,5 C10,2.23855 7.7614,0 5,0" id="Fill-614" fill="#133692"></path>
                    <path d="M5,9.55555556 C2.48403293,9.55555556 0.444444444,7.51596707 0.444444444,5 C0.444444444,2.4839835 2.48403293,0.444444444 5,0.444444444 C7.51596707,0.444444444 9.55555556,2.4839835 9.55555556,5 C9.55555556,7.51596707 7.51596707,9.55555556 5,9.55555556" id="Fill-615" fill="#FFFFFF"></path>
                    <polygon id="Fill-616" fill="#FF9127" points="7.11111111 4.66666667 4.81097917 0.888888889 2.44444444 4.66666667 4.81097917 3.64827802"></polygon>
                    <polygon id="Fill-617" fill="#FF9127" points="2.66666667 5.55555556 4.96679861 9.11111111 7.33333333 5.55555556 4.96679861 6.96919089"></polygon>
                    <polygon id="Fill-618" fill="#FF9127" points="7.33333333 5.00949172 4.87513347 4 2.44444444 5.00949172 4.87513347 6.44444444"></polygon>
                </g>
                <g id="BCH" opacity="0.66723279" transform="translate(258.000000, 425.000000)">
                    <path d="M9.98407463,5.02469652 C9.98407463,7.77240796 7.75666169,9.9998209 5.00895025,9.9998209 C2.26123881,9.9998209 0.0338258706,7.77240796 0.0338258706,5.02469652 C0.0338258706,2.27698507 2.26123881,0.0495721393 5.00895025,0.0495721393 C7.75666169,0.0495721393 9.98407463,2.27698507 9.98407463,5.02469652" id="Fill-511" stroke="#133692" stroke-width="0.5" fill="#FF9127"></path>
                    <path d="M6.84940796,5.14890547 C6.91677114,5.27845771 6.92970647,5.42646766 6.88567662,5.56572139 C6.84174627,5.70502488 6.74627363,5.81880597 6.61662189,5.88616915 L5.31975622,6.56069652 L4.81527861,5.59069652 L6.11214428,4.91616915 C6.37955721,4.77711443 6.71030348,4.88149254 6.84940796,5.14890547 M5.69537811,3.27716418 C5.83463184,3.32114428 5.94846269,3.41671642 6.01582587,3.54626866 C6.1548806,3.81363184 6.05035323,4.14442786 5.78318905,4.28353234 C5.7831393,4.28353234 5.78308955,4.28353234 5.78308955,4.28353234 L4.48622388,4.9580597 L3.98164677,3.9880597 L5.27861194,3.31348259 C5.40811443,3.24616915 5.55612438,3.23323383 5.69537811,3.27716418 M5.91010448,2.59721393 C5.5891592,2.4959204 5.24801493,2.52562189 4.94950746,2.68089552 L4.77796517,2.77014925 L4.35846269,1.96358209 L3.74204478,2.28412935 L4.16159701,3.09069652 L3.63542786,3.36437811 L3.21587562,2.55776119 L3.06826368,2.63457711 L2.47010448,2.94567164 L2.87448259,3.72318408 L2.14557711,4.10228856 L2.5048806,4.79313433 L3.23383582,4.41402985 L4.54164677,6.92845771 L3.81269154,7.30756219 L4.17204478,7.99840796 L4.90095025,7.61930348 L5.24224378,8.27552239 L5.38990547,8.19875622 L5.98801493,7.88761194 L5.63154726,7.20228856 L6.15900995,6.9279602 L6.51547761,7.61333333 L7.12935821,7.29402985 L6.77289055,6.60865672 L6.94567662,6.51880597 C7.05582587,6.46149254 7.15537811,6.38960199 7.24219403,6.30562189 C7.39050249,6.16199005 7.50179602,5.98288557 7.56567662,5.78039801 C7.6670199,5.45950249 7.63726866,5.11840796 7.48199502,4.81985075 C7.31866169,4.5058209 7.04040299,4.29004975 6.72547761,4.19567164 C6.82920896,3.88348259 6.81189552,3.53144279 6.64846269,3.21721393 C6.49318905,2.91865672 6.2309005,2.69850746 5.91010448,2.59721393" id="Fill-512" fill="#FFFFFF"></path>
                </g>
                <g id="LTC" opacity="0.66723279" transform="translate(40.000000, 248.000000)">
                    <path d="M4.97834328,0.0386666667 C2.23063184,0.0386666667 0.00321890547,2.2660796 0.00321890547,5.01379104 C0.00321890547,7.76150249 2.23063184,9.98891542 4.97834328,9.98891542 C7.72605473,9.98891542 9.95346766,7.76150249 9.95346766,5.01379104 C9.95346766,2.2660796 7.72605473,0.0386666667 4.97834328,0.0386666667" id="Fill-491" fill="#133692"></path>
                    <path d="M4.97834328,0.453268657 C7.4930199,0.453268657 9.53889055,2.4991393 9.53889055,5.01381592 C9.53889055,7.52844279 7.4930199,9.57431343 4.97834328,9.57431343 C2.46366667,9.57431343 0.41779602,7.52844279 0.41779602,5.01381592 C0.41779602,2.4991393 2.46366667,0.453268657 4.97834328,0.453268657" id="Fill-492" fill="#FFFFFF"></path>
                    <path d="M8.11357214,3.16512438 C8.00332338,2.97840796 7.87397015,2.8 7.72745274,2.63129353 L2.5958607,7.76288557 C2.76456716,7.90935323 2.94297512,8.03875622 3.12969154,8.14900498 L8.11357214,3.16512438 Z" id="Fill-493" fill="#FF9127" opacity="0.538439764"></path>
                    <path d="M7.30538308,2.21705473 C7.13319403,2.07342289 6.95075622,1.94849751 6.76085572,1.84168159 L1.80622886,6.79625871 C1.91304478,6.98620896 2.03797015,7.16859701 2.18165174,7.34078607 L7.30538308,2.21705473 Z" id="Fill-494" fill="#FF9127" opacity="0.538439764"></path>
                    <path d="M6.18578607,1.58036816 C5.94324876,1.49529353 5.69344776,1.43743284 5.44091045,1.40529353 L1.36986567,5.47638806 C1.40205473,5.72882587 1.45981592,5.97867662 1.5449403,6.22121393 L6.18578607,1.58036816 Z" id="Fill-495" fill="#FF9127" opacity="0.538439764"></path>
                    <path d="M4.61670149,1.39319403 C3.80938806,1.47334328 3.02376617,1.82234826 2.40535821,2.44075622 C1.78695025,3.05916418 1.43789552,3.84483582 1.35774627,4.65214925 L4.61670149,1.39319403 Z" id="Fill-496" fill="#FF9127" opacity="0.538439764"></path>
                    <path d="M8.57447264,4.46052736 C8.53656219,4.21286567 8.47263184,3.96858706 8.38352736,3.73152239 L3.69606468,8.41893532 C3.93312935,8.5080398 4.17740796,8.5720199 4.42506965,8.6098806 L8.57447264,4.46052736 Z" id="Fill-497" fill="#FF9127" opacity="0.538439764"></path>
                    <path d="M8.60758706,5.26371144 L5.22828358,8.64301493 C6.07450249,8.58510448 6.90450249,8.23371144 7.55136816,7.58679602 C8.19828358,6.9398806 8.54967662,6.1099801 8.60758706,5.26371144" id="Fill-498" fill="#FF9127" opacity="0.538439764"></path>
                    <polygon id="Fill-499" fill="#F8F9F7" points="4.57496517 6.28587065 4.78804975 4.75422886 6.13307463 3.78616915 6.13307463 2.85746269 4.93168159 3.72189055 5.178 1.95139303 3.70804975 1.95139303 3.39267662 4.82920398 2.45670647 5.50263682 2.45670647 6.43208955 3.28212935 5.8380597 3.10501493 7.45427861 4.57496517 7.45427861 7.91456716 7.45427861 7.91456716 6.28587065"></polygon>
                    <path d="M3.22983582,7.34240299 L7.80272139,7.34240299 L7.80272139,6.39772637 L4.44640299,6.39772637 L4.68386567,4.69140796 L6.02127861,3.72887065 L6.02127861,3.07578607 L4.7848607,3.96533831 L5.04948756,2.06324876 L3.80839303,2.06324876 L3.49849254,4.89091045 L2.56859204,5.56001493 L2.56859204,6.21374627 L3.42073134,5.60046269 L3.22983582,7.34240299 Z M8.02640299,7.56613433 L2.98023383,7.56613433 L3.14361692,6.07563682 L2.3448607,6.65041294 L2.3448607,5.44533831 L3.2869005,4.76752736 L3.60779602,1.83951741 L5.30655224,1.83951741 L5.07839303,3.47847264 L6.2449602,2.63921891 L6.2449602,3.84344776 L4.89217413,4.81702985 L4.70351741,6.17404478 L8.02640299,6.17404478 L8.02640299,7.56613433 Z" id="Fill-500" fill="#133692"></path>
                </g>
                <g id="noun_159959_cc" transform="translate(124.000000, 187.000000)" fill="#FFFFFF" fill-rule="nonzero" stroke="#133692">
                    <path d="M61.5786517,0 C52.2470337,0 43.4592697,3.64995918 36.879618,10.1376735 C35.0791236,9.27697959 33.0944382,8.81632653 31.0617978,8.81632653 C25.2766742,8.81632653 20.3220449,12.4817143 18.3493483,17.6359592 C8.3158427,17.4056327 0,25.6665306 0,35.8163265 C0,45.8426939 8.06734831,54 17.9831461,54 L79.0168539,54 C88.9326517,54 97,45.8426939 97,35.8163265 C97,16.0677551 81.1105281,0 61.5786517,0 Z" id="Shape"></path>
                </g>
                <g id="BTC" opacity="0.66723279" transform="translate(538.000000, 303.000000)">
                    <path d="M10,5 C10,7.76145 7.76145,10 5,10 C2.23855,10 0,7.76145 0,5 C0,2.23855 2.23855,0 5,0 C7.76145,0 10,2.23855 10,5" id="Fill-504" stroke="#133692" stroke-width="0.5" fill="#FF9127"></path>
                    <path d="M6.23562843,6.57173565 C6.19357732,6.71373972 6.09897489,6.83075553 5.96925451,6.90122751 C5.83953413,6.97180046 5.69032053,6.98734872 5.54899464,6.94504534 L4.13417837,6.52165813 L4.44938583,5.45836916 L5.86410162,5.88180684 L5.86415186,5.88180684 C6.15584688,5.96908912 6.3225441,6.27859036 6.23562843,6.57173565 M6.71281052,4.39270756 C6.78294594,4.52305044 6.79841995,4.67298009 6.75636884,4.81503465 C6.66945317,5.10807897 6.36127935,5.27547518 6.06973505,5.18834434 L6.06968481,5.18834434 L4.65491878,4.76495714 L4.97002576,3.70166816 L6.38484203,4.12505537 C6.52616792,4.16735875 6.64262487,4.26236468 6.71281052,4.39270756 M7.34613938,4.04842466 C7.18441595,3.74811102 6.91598218,3.5290219 6.59037498,3.43159287 L6.40317973,3.37560903 L6.66523299,2.49147842 L5.99286744,2.2902597 L5.73081419,3.17439032 L5.15676885,3.00260223 L5.41887234,2.11847162 L5.25780203,2.07026192 L4.60528139,1.875 L4.35267331,2.72722639 L3.5574703,2.48925724 L3.33304701,3.2464777 L4.12825002,3.48449734 L3.31129297,6.24067886 L2.51608996,6.00270971 L2.29166667,6.75998065 L3.08681944,6.99789932 L2.87364997,7.71720828 L3.03467004,7.76541799 L3.68719068,7.9606799 L3.90985556,7.20946672 L4.48525738,7.38165865 L4.2625925,8.13292232 L4.93224508,8.33333333 L5.15490996,7.58206967 L5.34341145,7.63845735 C5.46358618,7.67440009 5.58632317,7.69222001 5.70830654,7.69222001 C5.91680367,7.69222001 6.12334142,7.64017372 6.31189316,7.53764607 C6.61077253,7.37514656 6.82876507,7.10547511 6.92577903,6.77820443 C7.02776678,6.433972 6.97742603,6.08035005 6.8152002,5.7892745 C7.10970867,5.63485201 7.34438097,5.36593778 7.4464692,5.02155391 C7.54348317,4.69428323 7.50781257,4.34868781 7.34613938,4.04842466" id="Fill-505" fill="#FFFFFF"></path>
                </g>
                <g id="XRP" opacity="0.66723279" transform="translate(383.000000, 397.000000)">
                    <path d="M4.99733831,0.0495721393 C2.24962687,0.0495721393 0.0222139303,2.27698507 0.0222139303,5.02469652 C0.0222139303,7.77240796 2.24962687,9.9998209 4.99733831,9.9998209 C7.74504975,9.9998209 9.97246269,7.77240796 9.97246269,5.02469652 C9.97246269,2.27698507 7.74504975,0.0495721393 4.99733831,0.0495721393" id="Fill-513" fill="#133692"></path>
                    <path d="M4.99733831,9.58087065 C2.4810199,9.58087065 0.441169154,7.5410199 0.441169154,5.02470149 C0.441169154,2.50838308 2.4810199,0.468532338 4.99733831,0.468532338 C7.51365672,0.468532338 9.55350746,2.50838308 9.55350746,5.02470149 C9.55350746,7.5410199 7.51365672,9.58087065 4.99733831,9.58087065" id="Fill-514" fill="#FFFFFF"></path>
                    <path d="M6.07192537,5.57179104 C6.00356716,5.57179104 5.93640299,5.57696517 5.87083085,5.58686567 C5.67466169,5.41985075 5.52321891,5.21238806 5.53650249,4.97412935 C5.54685075,4.78845771 5.63351741,4.63378109 5.75794527,4.50587065 C5.84789552,4.52492537 5.9410796,4.53512438 6.03670149,4.53512438 C6.77655224,4.53512438 7.37630348,3.93532338 7.37630348,3.19547264 C7.37630348,2.45562189 6.77655224,1.8558209 6.03670149,1.8558209 C5.296801,1.8558209 4.69704975,2.45562189 4.69704975,3.19547264 C4.69704975,3.53945274 4.826801,3.85308458 5.03988557,4.09029851 C5.01038308,4.26746269 4.94575622,4.4239801 4.82043284,4.50572139 C4.68685075,4.59283582 4.42212438,4.60651741 4.13371642,4.58731343 C3.93784577,4.09039801 3.45381592,3.73860697 2.88734826,3.73860697 C2.14749751,3.73860697 1.54769652,4.33835821 1.54769652,5.07825871 C1.54769652,5.81810945 2.14749751,6.41791045 2.88734826,6.41791045 C3.49660199,6.41791045 4.01048259,6.01104478 4.17306965,5.45427861 C4.40804478,5.41840796 4.61998507,5.42159204 4.73227363,5.51049751 C4.87491045,5.62338308 4.94734826,5.86462687 4.98078109,6.13467662 C4.82451244,6.35383085 4.73227363,6.62179104 4.73227363,6.91144279 C4.73227363,7.65129353 5.33207463,8.25109453 6.07192537,8.25109453 C6.81182587,8.25109453 7.41157711,7.65129353 7.41157711,6.91144279 C7.41157711,6.17159204 6.81182587,5.57179104 6.07192537,5.57179104" id="Fill-515" fill="#FF9127"></path>
                </g>
                <g id="ETC" opacity="0.66723279" transform="translate(373.000000, 238.000000)">
                    <polygon id="Fill-612" fill="#FFFFFF" points="2.88888889 5.77777778 5.11111111 6.88552044 5.11111111 8.66666667"></polygon>
                    <polygon id="Fill-613" fill="#FFFFFF" points="7.33333333 5.77777778 5.11111111 8.66666667 5.11111111 6.88552044"></polygon>
                    <path d="M5,0 C2.23855,0 0,2.23855 0,5 C0,7.76145 2.23855,10 5,10 C7.7614,10 10,7.76145 10,5 C10,2.23855 7.7614,0 5,0" id="Fill-614" fill="#133692"></path>
                    <path d="M5,9.55555556 C2.48403293,9.55555556 0.444444444,7.51596707 0.444444444,5 C0.444444444,2.4839835 2.48403293,0.444444444 5,0.444444444 C7.51596707,0.444444444 9.55555556,2.4839835 9.55555556,5 C9.55555556,7.51596707 7.51596707,9.55555556 5,9.55555556" id="Fill-615" fill="#FFFFFF"></path>
                    <polygon id="Fill-616" fill="#FF9127" points="7.11111111 4.66666667 4.81097917 0.888888889 2.44444444 4.66666667 4.81097917 3.64827802"></polygon>
                    <polygon id="Fill-617" fill="#FF9127" points="2.66666667 5.55555556 4.96679861 9.11111111 7.33333333 5.55555556 4.96679861 6.96919089"></polygon>
                    <polygon id="Fill-618" fill="#FF9127" points="7.33333333 5.00949172 4.87513347 4 2.44444444 5.00949172 4.87513347 6.44444444"></polygon>
                </g>
                <g id="Group-33" transform="translate(169.000000, 221.000000)">
                    <rect id="Rectangle-19" fill="#133692" x="0" y="0" width="188" height="132" rx="12"></rect>
                    <rect id="Rectangle-20" fill="#FFFFFF" x="16" y="16" width="156" height="100" rx="8"></rect>
                    <g id="Rectangle-21">
                        <use fill="#FFFFFF" fill-rule="evenodd" xlink:href="#path-4"></use>
                        <rect stroke="#133692" stroke-width="2" x="13" y="39" width="6" height="17" rx="3"></rect>
                    </g>
                    <g id="Rectangle-21">
                        <use fill="#FFFFFF" fill-rule="evenodd" xlink:href="#path-5"></use>
                        <rect stroke="#133692" stroke-width="2" x="13" y="76" width="6" height="17" rx="3"></rect>
                    </g>
                    <g id="Group-32" transform="translate(61.000000, 32.000000)">
                        <circle id="Oval-4" stroke="#133692" stroke-width="2" cx="33.5" cy="33.5" r="32.5"></circle>
                        <g id="Group-31" transform="translate(6.000000, 6.000000)">
                            <g id="Oval-4">
                                <use fill="#FF9127" fill-rule="evenodd" xlink:href="#path-6"></use>
                                <circle stroke="#133692" stroke-width="2" cx="27.5" cy="27.5" r="26.5"></circle>
                            </g>
                            <g id="Oval-4">
                                <use fill="#FFFFFF" fill-rule="evenodd" xlink:href="#path-7"></use>
                                <circle stroke="#133692" stroke-width="2" cx="27.5" cy="27.5" r="16.5"></circle>
                            </g>
                            <rect id="Rectangle-7" fill="#133692" x="27" y="44" width="2" height="9"></rect>
                            <rect id="Rectangle-7" fill="#133692" x="27" y="2" width="2" height="9"></rect>
                            <rect id="Rectangle-7" fill="#133692" transform="translate(44.000000, 15.000000) rotate(49.000000) translate(-44.000000, -15.000000) " x="43" y="10" width="2" height="10"></rect>
                            <rect id="Rectangle-8" fill="#133692" x="1" y="28" width="10" height="2"></rect>
                            <rect id="Rectangle-8" fill="#133692" x="44" y="28" width="10" height="2"></rect>
                            <rect id="Rectangle-7" fill="#133692" transform="translate(11.000000, 15.000000) rotate(-49.000000) translate(-11.000000, -15.000000) " x="10" y="10" width="2" height="10"></rect>
                            <rect id="Rectangle-7" fill="#133692" transform="translate(44.000000, 41.000000) rotate(-49.000000) translate(-44.000000, -41.000000) " x="43" y="36" width="2" height="10"></rect>
                            <rect id="Rectangle-7" fill="#133692" transform="translate(11.000000, 42.000000) rotate(49.000000) translate(-11.000000, -42.000000) " x="10" y="37" width="2" height="10"></rect>
                        </g>
                    </g>
                    <rect id="Rectangle-22" fill="#133692" x="24" y="126" width="16" height="11" rx="2"></rect>
                    <rect id="Rectangle-22" fill="#133692" x="148" y="126" width="16" height="11" rx="2"></rect>
                </g>
                <use id="Rectangle-23" stroke="#133692" mask="url(#mask-9)" stroke-width="2" stroke-dasharray="3,7" xlink:href="#path-8"></use>
                <g id="Group-35" transform="translate(397.000000, 245.000000)">
                    <g id="Oval-5">
                        <use fill="#FFFFFF" fill-rule="evenodd" xlink:href="#path-10"></use>
                        <circle stroke="#133692" stroke-width="1" cx="34" cy="34" r="33.5"></circle>
                    </g>
                    <g id="Group-34" transform="translate(17.000000, 14.000000)" fill-rule="nonzero" stroke="#133692">
                        <path d="M31.48128,5.18577778 C28.33288,5.18577778 22.6666667,4.44488889 17,0 C12.4666667,4.44444444 6.42237333,5.18577778 2.89634667,5.18577778 C1.13333333,5.18577778 0,5 0,5 L0,14.5444444 C0,34.5444444 17,40 17,40 C17,40 34,34.5444444 34,14.5444444 L34,5 C34,5 33.0557067,5.18577778 31.48128,5.18577778 Z" id="Shape" fill="#FF9127"></path>
                        <path d="M27.22208,9.5216477 C24.99968,9.5216477 21,8.99760434 17,5.85365854 C13.8,8.99728997 9.53344,9.5216477 7.04448,9.5216477 C5.8,9.5216477 5,9.3902439 5,9.3902439 L5,16.1411924 C5,30.2875339 17,34.1463415 17,34.1463415 C17,34.1463415 29,30.2875339 29,16.1411924 L29,9.3902439 C29,9.3902439 28.33344,9.5216477 27.22208,9.5216477 Z M15.50016,24.7154472 L10.4,19.4105691 L11.90016,17.6422764 L15.50016,20.1474363 L23,14.695122 L24.35008,15.8739837 L15.50016,24.7154472 Z" id="Shape" fill="#FFFFFF"></path>
                    </g>
                </g>
                <g id="Group-35" transform="translate(226.000000, 113.000000)">
                    <g id="Oval-5">
                        <use fill="#FFFFFF" fill-rule="evenodd" xlink:href="#path-11"></use>
                        <circle stroke="#133692" stroke-width="1" cx="34" cy="34" r="33.5"></circle>
                    </g>
                </g>
                <g id="noun_153146_cc" transform="translate(259.833333, 148.100000) rotate(90.000000) translate(-259.833333, -148.100000) translate(238.333333, 136.600000)" fill="#FF9127" fill-rule="nonzero" stroke="#133692">
                    <g id="Group">
                        <polygon id="Shape" points="16.4411765 0.318518519 6.63970588 10.1925926 0.505882353 4.07703704 0.569117647 22.36 18.7808824 22.4237037 12.7102941 16.3081481 22.5117647 6.49777778"></polygon>
                        <polygon id="Shape" points="26.5588235 22.6148148 36.4235294 12.677037 42.4941176 18.7925926 42.4308824 0.445925926 24.2191176 0.445925926 30.3529412 6.56148148 20.4882353 16.4355556"></polygon>
                    </g>
                </g>
                <path d="M354.578652,313 C345.247034,313 336.45927,316.649959 329.879618,323.137673 C328.079124,322.27698 326.094438,321.816327 324.061798,321.816327 C318.276674,321.816327 313.322045,325.481714 311.349348,330.635959 C301.315843,330.405633 293,338.666531 293,348.816327 C293,358.842694 301.067348,367 310.983146,367 L372.016854,367 C381.932652,367 390,358.842694 390,348.816327 C390,329.067755 374.110528,313 354.578652,313 Z" id="Shape" stroke="#133692" fill="#FFFFFF" fill-rule="nonzero"></path>
            </g>
        </g>
    </g>
</svg>