<?xml version="1.0" encoding="UTF-8"?>
<svg width="131px" height="30px" viewBox="0 0 131 30" version="1.1" xmlns="http://www.w3.org/2000/svg" xmlns:xlink="http://www.w3.org/1999/xlink">
    <!-- Generator: Sketch 48.2 (47327) - http://www.bohemiancoding.com/sketch -->
    <title>Group 2</title>
    <desc>Created with Sketch.</desc>
    <defs>
        <rect id="path-1" x="10.0489251" y="11.6266667" width="1.81467754" height="7.62666667" rx="0.907338769"></rect>
        <rect id="path-2" x="18.5174203" y="11.6266667" width="1.81467754" height="7.62666667" rx="0.907338769"></rect>
    </defs>
    <g id="Desktop-HD-Copy-2" stroke="none" stroke-width="1" fill="none" fill-rule="evenodd" transform="translate(-116.000000, -26.000000)">
        <g id="Group-2" transform="translate(116.000000, 26.000000)">
            <g id="Group">
                <path d="M15.4929577,25.7066667 C21.840343,25.7066667 26.9859155,24.3958756 26.9859155,18.2879325 C26.9859155,12.1799894 21.840343,4 15.4929577,4 C9.14557245,4 4,12.1799894 4,18.2879325 C4,24.3958756 9.14557245,25.7066667 15.4929577,25.7066667 Z M15.4929577,29.3733333 C6.0070753,29.3733333 0.210526316,26.332132 0.210526316,18.2879325 C0.210526316,9.75167424 7.18524121,0.333333333 15.4929577,0.333333333 C23.8006743,0.333333333 30.7753892,9.75167424 30.7753892,18.2879325 C30.7753892,26.332132 24.9788402,29.3733333 15.4929577,29.3733333 Z" id="Oval" fill="#FFFFFF" fill-rule="nonzero"></path>
                <g id="Rectangle">
                    <use fill="#FFFFFF" fill-rule="evenodd" xlink:href="#path-1"></use>
                    <rect stroke="#FFFFFF" stroke-width="1" x="10.5489251" y="12.1266667" width="1" height="6.62666667" rx="0.5"></rect>
                </g>
                <g id="Rectangle">
                    <use fill="#FFFFFF" fill-rule="evenodd" xlink:href="#path-2"></use>
                    <rect stroke="#FFFFFF" stroke-width="1" x="19.0174203" y="12.1266667" width="1" height="6.62666667" rx="0.5"></rect>
                </g>
            </g>
            <path d="M44.5302067,6.58848614 C47.9308426,6.58848614 50.5675676,9.21215352 50.5675676,12.4733475 C50.5675676,15.7345416 47.9308426,18.358209 44.5302067,18.358209 L41.9427663,18.358209 L41.9427663,23.7526652 L38,23.7526652 L38,6.58848614 L44.5302067,6.58848614 Z M44.5302067,14.6801706 C45.7376789,14.6801706 46.6248013,13.7238806 46.6248013,12.4733475 C46.6248013,11.2228145 45.7376789,10.2665245 44.5302067,10.2665245 L41.9427663,10.2665245 L41.9427663,14.6801706 L44.5302067,14.6801706 Z M54.263911,10.4136461 C53.0564388,10.4136461 52.0461049,9.40831557 52.0461049,8.20682303 C52.0461049,7.00533049 53.0564388,6 54.263911,6 C55.4713831,6 56.481717,7.00533049 56.481717,8.20682303 C56.481717,9.40831557 55.4713831,10.4136461 54.263911,10.4136461 Z M52.4157393,23.7526652 L52.4157393,11.4925373 L56.1120827,11.4925373 L56.1120827,23.7526652 L52.4157393,23.7526652 Z M67.8664547,11.4925373 L71.4642289,11.4925373 L71.4642289,23.1396588 C71.4642289,27.2590618 68.236089,29 64.9586645,29 C62.3958665,29 60.2519873,28.04371 59.118442,26.033049 L62.272655,24.2185501 C62.7408585,25.0767591 63.4554849,25.7633262 65.081876,25.7633262 C66.8068362,25.7633262 67.8664547,24.880597 67.8664547,23.1396588 L67.8664547,22.0117271 C67.0532591,23.0170576 65.8704293,23.6055437 64.2686804,23.6055437 C60.7694754,23.6055437 58.2066773,20.761194 58.2066773,17.3773987 C58.2066773,13.9936034 60.7694754,11.1492537 64.2686804,11.1492537 C65.8704293,11.1492537 67.0532591,11.7377399 67.8664547,12.7430704 L67.8664547,11.4925373 Z M64.8847377,20.2217484 C66.6343402,20.2217484 67.8664547,19.0692964 67.8664547,17.3773987 C67.8664547,15.6855011 66.6343402,14.533049 64.8847377,14.533049 C63.1351351,14.533049 61.9030207,15.6855011 61.9030207,17.3773987 C61.9030207,19.0692964 63.1351351,20.2217484 64.8847377,20.2217484 Z M83.218601,11.4925373 L86.8163752,11.4925373 L86.8163752,23.1396588 C86.8163752,27.2590618 83.5882353,29 80.3108108,29 C77.7480127,29 75.6041335,28.04371 74.4705882,26.033049 L77.6248013,24.2185501 C78.0930048,25.0767591 78.8076312,25.7633262 80.4340223,25.7633262 C82.1589825,25.7633262 83.218601,24.880597 83.218601,23.1396588 L83.218601,22.0117271 C82.4054054,23.0170576 81.2225755,23.6055437 79.6208267,23.6055437 C76.1216216,23.6055437 73.5588235,20.761194 73.5588235,17.3773987 C73.5588235,13.9936034 76.1216216,11.1492537 79.6208267,11.1492537 C81.2225755,11.1492537 82.4054054,11.7377399 83.218601,12.7430704 L83.218601,11.4925373 Z M80.2368839,20.2217484 C81.9864865,20.2217484 83.218601,19.0692964 83.218601,17.3773987 C83.218601,15.6855011 81.9864865,14.533049 80.2368839,14.533049 C78.4872814,14.533049 77.2551669,15.6855011 77.2551669,17.3773987 C77.2551669,19.0692964 78.4872814,20.2217484 80.2368839,20.2217484 Z M97.2893482,11.4925373 L101.232114,11.4925373 L97.018283,23.3848614 C95.6383148,27.2835821 93.445151,28.8283582 89.9952305,28.6567164 L89.9952305,25.2238806 C91.7201908,25.2238806 92.5333863,24.684435 93.0755167,23.1886994 L88.1717011,11.4925373 L92.2376789,11.4925373 L94.972973,18.9957356 L97.2893482,11.4925373 Z M113.405405,14.8518124 C114.686804,15.6609808 115.524642,16.9850746 115.524642,18.7260128 C115.524642,21.7665245 113.035771,23.7526652 109.955485,23.7526652 L102.710652,23.7526652 L102.710652,6.58848614 L109.462639,6.58848614 C112.468998,6.58848614 114.908585,8.52558635 114.908585,11.4925373 C114.908585,12.9147122 114.341812,14.0426439 113.405405,14.8518124 Z M109.462639,10.2665245 L106.653418,10.2665245 L106.653418,13.3070362 L109.462639,13.3070362 C110.349762,13.3070362 110.965819,12.6695096 110.965819,11.7867804 C110.965819,10.9040512 110.374404,10.2665245 109.462639,10.2665245 Z M109.955485,20.0746269 C110.941176,20.0746269 111.581876,19.3880597 111.581876,18.4317697 C111.581876,17.4754797 110.941176,16.7889126 109.955485,16.7889126 L106.653418,16.7889126 L106.653418,20.0746269 L109.955485,20.0746269 Z M119.220986,10.4136461 C118.013514,10.4136461 117.00318,9.40831557 117.00318,8.20682303 C117.00318,7.00533049 118.013514,6 119.220986,6 C120.428458,6 121.438792,7.00533049 121.438792,8.20682303 C121.438792,9.40831557 120.428458,10.4136461 119.220986,10.4136461 Z M117.372814,23.7526652 L117.372814,11.4925373 L121.069157,11.4925373 L121.069157,23.7526652 L117.372814,23.7526652 Z M131,15.0234542 L128.461844,15.0234542 L128.461844,19.3635394 C128.461844,20.4179104 129.373609,20.5159915 131,20.4179104 L131,23.7526652 C126.170111,24.2430704 124.765501,22.7963753 124.765501,19.3635394 L124.765501,15.0234542 L122.794118,15.0234542 L122.794118,11.4925373 L124.765501,11.4925373 L124.765501,9.16311301 L128.461844,8.05970149 L128.461844,11.4925373 L131,11.4925373 L131,15.0234542 Z" id="PiggyBit" fill="#FFFFFF"></path>
        </g>
    </g>
</svg>