<?xml version="1.0" encoding="UTF-8"?>
<svg width="144px" height="107px" viewBox="0 0 144 107" version="1.1" xmlns="http://www.w3.org/2000/svg" xmlns:xlink="http://www.w3.org/1999/xlink">
    <!-- Generator: Sketch 48.2 (47327) - http://www.bohemiancoding.com/sketch -->
    <title>Group 39</title>
    <desc>Created with Sketch.</desc>
    <defs>
        <linearGradient x1="50%" y1="0%" x2="50%" y2="100%" id="linearGradient-1">
            <stop stop-color="#001F81" offset="0%"></stop>
            <stop stop-color="#183C97" offset="100%"></stop>
        </linearGradient>
    </defs>
    <g id="Desktop-HD-Copy-2" stroke="none" stroke-width="1" fill="none" fill-rule="evenodd" transform="translate(-648.000000, -1921.000000)">
        <g id="Group-21" transform="translate(560.000000, 1921.000000)">
            <g id="Group-18" transform="translate(88.000000, 0.000000)">
                <g id="Group-39">
                    <path d="M72,107 C111.764502,107 144,80.8757511 144,40.9351753 C144,0.994599582 111.764502,0 72,0 C32.235498,0 0,0.994599582 0,40.9351753 C0,80.8757511 32.235498,107 72,107 Z" id="Oval-3" fill="#FF9127" opacity="0.152117301"></path>
                    <g id="Group-14" transform="translate(38.000000, 28.000000)" fill="url(#linearGradient-1)" fill-rule="nonzero">
                        <g id="noun_76629_cc">
                            <path d="M18.36,26.3942134 L18.36,29.0632911 C18.36,29.0632911 18.36,29.0632911 18.36,29.1374322 C18.36,30.4719711 14.28,31.5840868 9.21777778,31.5840868 C4.08,31.5840868 0,30.4719711 0,29.1374322 C0,29.1374322 0,29.1374322 0,29.0632911 L0,26.3942134 C0,26.3200723 0,26.2459313 0.0755555556,26.2459313 C0.528888889,27.5063291 4.45777778,28.4701627 9.21777778,28.4701627 C13.9777778,28.4701627 17.9066667,27.5063291 18.36,26.2459313 C18.36,26.2459313 18.36,26.3200723 18.36,26.3942134 Z M18.2844444,22.0198915 C17.8311111,23.2802893 13.9022222,24.244123 9.14222222,24.244123 C4.38222222,24.244123 0.453333333,23.2802893 0,22.0198915 C0,22.0940325 0,22.0940325 0,22.1681736 L0,24.8372514 C0,24.8372514 0,24.8372514 0,24.9113924 C0,26.2459313 4.08,27.358047 9.14222222,27.358047 C14.2044444,27.358047 18.2844444,26.2459313 18.2844444,24.9113924 C18.2844444,24.9113924 18.2844444,24.9113924 18.2844444,24.8372514 L18.2844444,22.1681736 C18.36,22.0940325 18.36,22.0940325 18.2844444,22.0198915 Z M18.2844444,17.9421338 C17.8311111,19.2025316 13.9022222,20.1663653 9.14222222,20.1663653 C4.38222222,20.1663653 0.453333333,19.2025316 0,17.9421338 C0,18.0162749 0,18.0904159 0,18.164557 L0,20.8336347 C0,20.8336347 0,20.8336347 0,20.9077758 C0,22.2423146 4.08,23.3544304 9.14222222,23.3544304 C14.2044444,23.3544304 18.2844444,22.2423146 18.2844444,20.9077758 C18.2844444,20.9077758 18.2844444,20.9077758 18.2844444,20.8336347 L18.2844444,18.164557 C18.36,18.0904159 18.36,18.0162749 18.2844444,17.9421338 Z M18.2844444,13.7902351 C17.8311111,15.0506329 13.9022222,16.0144665 9.14222222,16.0144665 C4.38222222,16.0144665 0.453333333,15.0506329 0,13.7902351 C0,13.8643761 0,13.9385172 0,13.9385172 L0,16.6075949 C0,16.6075949 0,16.6075949 0,16.681736 C0,18.0162749 4.08,19.1283906 9.14222222,19.1283906 C14.2044444,19.1283906 18.2844444,18.0162749 18.2844444,16.681736 C18.2844444,16.681736 18.2844444,16.681736 18.2844444,16.6075949 L18.2844444,13.9385172 C18.36,13.9385172 18.36,13.8643761 18.2844444,13.7902351 Z M9.14222222,7.41410488 C4.15555556,7.41410488 0.0755555556,8.45207957 1.77635684e-15,9.78661844 L1.77635684e-15,12.4556962 C1.77635684e-15,12.4556962 1.77635684e-15,12.4556962 1.77635684e-15,12.5298373 C1.77635684e-15,13.8643761 4.08,14.9764919 9.14222222,14.9764919 C14.2044444,14.9764919 18.2844444,13.8643761 18.2844444,12.5298373 C18.2844444,12.5298373 18.2844444,12.5298373 18.2844444,12.4556962 L18.2844444,9.78661844 C18.2088889,8.45207957 14.1288889,7.41410488 9.14222222,7.41410488 Z M67.9244444,26.1717902 C67.4711111,27.358047 63.9955556,28.2477396 59.6133333,28.3218807 L59.6133333,31.5099458 C64.2977778,31.4358047 68,30.323689 68,29.0632911 C68,29.0632911 68,29.0632911 68,28.9891501 L68,26.3200723 C68,26.3200723 68,26.2459313 67.9244444,26.1717902 Z M68,18.0162749 C67.8488889,16.755877 64.2222222,15.7920434 59.6133333,15.6437613 L59.6133333,23.2061483 C64.2977778,23.0578662 68,22.0198915 68,20.7594937 C68,20.7594937 68,20.7594937 68,20.6853526 L68,18.0162749 Z M67.9244444,22.0198915 C67.4711111,23.2061483 63.9955556,24.0958409 59.6133333,24.1699819 L59.6133333,27.358047 C64.2977778,27.283906 68,26.1717902 68,24.9113924 C68,24.9113924 68,24.9113924 68,24.8372514 L68,22.1681736 C68,22.0940325 68,22.0940325 67.9244444,22.0198915 Z M21.9111111,22.6130199 C21.9111111,22.6871609 21.8355556,22.761302 21.8355556,22.761302 L21.8355556,25.4303797 C21.8355556,25.4303797 21.8355556,25.4303797 21.8355556,25.5045208 C21.8355556,26.7649186 25.6133333,27.8770344 30.4488889,27.9511754 L30.4488889,24.7631103 C25.9911111,24.7631103 22.3644444,23.7992767 21.9111111,22.6130199 Z M21.9111111,26.8390597 C21.9111111,26.9132007 21.8355556,26.9873418 21.8355556,26.9873418 L21.8355556,29.6564195 C21.8355556,29.6564195 21.8355556,29.6564195 21.8355556,29.7305606 C21.8355556,30.9909584 25.6133333,32.1030741 30.4488889,32.1772152 L30.4488889,28.9891501 C25.9911111,28.915009 22.3644444,28.0253165 21.9111111,26.8390597 Z M21.9111111,30.9909584 C21.9111111,31.0650995 21.8355556,31.1392405 21.8355556,31.1392405 L21.8355556,33.8824593 C21.8355556,33.8824593 21.8355556,33.8824593 21.8355556,33.9566004 C21.8355556,35.2169982 25.6133333,36.3291139 30.4488889,36.403255 L30.4488889,33.2151899 C25.9911111,33.1410488 22.3644444,32.1772152 21.9111111,30.9909584 Z M21.9111111,18.4611212 C21.9111111,18.5352622 21.8355556,18.6094033 21.8355556,18.6094033 L21.8355556,21.278481 C21.8355556,21.278481 21.8355556,21.278481 21.8355556,21.3526221 C21.8355556,22.6130199 25.6133333,23.7251356 30.4488889,23.7992767 L30.4488889,20.6112116 C25.9911111,20.5370705 22.3644444,19.5732369 21.9111111,18.4611212 Z M21.8355556,14.3833635 L21.8355556,17.0524412 C21.8355556,17.0524412 21.8355556,17.0524412 21.8355556,17.1265823 C21.8355556,18.3869801 25.6133333,19.4990958 30.4488889,19.5732369 L30.4488889,12.084991 C25.7644444,12.159132 21.9866667,13.1229656 21.8355556,14.3833635 Z M50.0933333,12.0108499 L50.0933333,19.5732369 C55.0044444,19.4990958 58.9333333,18.4611212 58.9333333,17.1265823 C58.9333333,17.1265823 58.9333333,17.1265823 58.9333333,17.0524412 L58.9333333,14.3833635 C58.7822222,13.1229656 54.9288889,12.084991 50.0933333,12.0108499 Z M58.9333333,22.6130199 C58.48,23.7992767 54.7022222,24.7631103 50.0933333,24.8372514 L50.0933333,27.9511754 C55.0044444,27.9511754 58.9333333,26.8390597 58.9333333,25.5045208 C58.9333333,25.5045208 58.9333333,25.5045208 58.9333333,25.4303797 L58.9333333,22.761302 C58.9333333,22.761302 58.9333333,22.6871609 58.9333333,22.6130199 Z M58.9333333,18.4611212 C58.48,19.6473779 54.7022222,20.6112116 50.0933333,20.6853526 L50.0933333,23.8734177 C55.0044444,23.7992767 58.9333333,22.761302 58.9333333,21.4267631 C58.9333333,21.4267631 58.9333333,21.4267631 58.9333333,21.3526221 L58.9333333,18.6835443 C58.9333333,18.5352622 58.9333333,18.4611212 58.9333333,18.4611212 Z M58.9333333,26.8390597 C58.48,28.0253165 54.7022222,28.9891501 50.0933333,29.0632911 L50.0933333,32.2513562 C55.0044444,32.1772152 58.9333333,31.1392405 58.9333333,29.8047016 C58.9333333,29.8047016 58.9333333,29.8047016 58.9333333,29.7305606 L58.9333333,27.0614828 C58.9333333,26.9132007 58.9333333,26.8390597 58.9333333,26.8390597 Z M58.9333333,30.9909584 C58.48,32.1772152 54.7022222,33.1410488 50.0933333,33.2151899 L50.0933333,36.403255 C55.0044444,36.3291139 58.9333333,35.2911392 58.9333333,33.9566004 C58.9333333,33.9566004 58.9333333,33.9566004 58.9333333,33.8824593 L58.9333333,31.2133816 C58.9333333,31.1392405 58.9333333,31.0650995 58.9333333,30.9909584 Z M49.4133333,35.6618445 C48.96,36.9222423 45.0311111,37.8860759 40.2711111,37.8860759 C35.5111111,37.8860759 31.5822222,36.9222423 31.1288889,35.6618445 C31.1288889,35.7359855 31.0533333,35.8101266 31.0533333,35.8101266 L31.0533333,38.4792043 C31.0533333,38.4792043 31.0533333,38.4792043 31.0533333,38.5533454 C31.0533333,39.8878843 35.1333333,41 40.1955556,41 C45.2577778,41 49.3377778,39.8878843 49.3377778,38.5533454 C49.3377778,38.5533454 49.3377778,38.5533454 49.3377778,38.4792043 L49.3377778,35.8101266 C49.4133333,35.8101266 49.4133333,35.7359855 49.4133333,35.6618445 Z M49.4133333,31.5099458 C48.96,32.7703436 45.0311111,33.7341772 40.2711111,33.7341772 C35.5111111,33.7341772 31.5822222,32.7703436 31.1288889,31.5099458 C31.1288889,31.5840868 31.0533333,31.6582278 31.0533333,31.6582278 L31.0533333,34.3273056 C31.0533333,34.3273056 31.0533333,34.3273056 31.0533333,34.4014467 C31.0533333,35.7359855 35.1333333,36.8481013 40.1955556,36.8481013 C45.2577778,36.8481013 49.3377778,35.7359855 49.3377778,34.4014467 C49.3377778,34.4014467 49.3377778,34.4014467 49.3377778,34.3273056 L49.3377778,31.6582278 C49.4133333,31.6582278 49.4133333,31.5840868 49.4133333,31.5099458 Z M49.4133333,27.283906 C48.96,28.5443038 45.0311111,29.5081374 40.2711111,29.5081374 C35.5111111,29.5081374 31.5822222,28.5443038 31.1288889,27.283906 C31.1288889,27.358047 31.0533333,27.4321881 31.0533333,27.4321881 L31.0533333,30.1754069 C31.0533333,30.1754069 31.0533333,30.1754069 31.0533333,30.2495479 C31.0533333,31.5840868 35.1333333,32.6962025 40.1955556,32.6962025 C45.2577778,32.6962025 49.3377778,31.5840868 49.3377778,30.2495479 C49.3377778,30.2495479 49.3377778,30.2495479 49.3377778,30.1754069 L49.3377778,27.5063291 C49.4133333,27.4321881 49.4133333,27.358047 49.4133333,27.283906 Z M49.4133333,23.1320072 C48.96,24.3924051 45.0311111,25.3562387 40.2711111,25.3562387 C35.5111111,25.3562387 31.5822222,24.3924051 31.1288889,23.1320072 C31.1288889,23.2061483 31.0533333,23.2802893 31.0533333,23.2802893 L31.0533333,25.9493671 C31.0533333,25.9493671 31.0533333,25.9493671 31.0533333,26.0235081 C31.0533333,27.358047 35.1333333,28.4701627 40.1955556,28.4701627 C45.2577778,28.4701627 49.3377778,27.358047 49.3377778,26.0235081 C49.3377778,26.0235081 49.3377778,26.0235081 49.3377778,25.9493671 L49.3377778,23.2802893 C49.4133333,23.2802893 49.4133333,23.2061483 49.4133333,23.1320072 Z M49.4133333,18.9059675 C48.96,20.1663653 45.0311111,21.1301989 40.2711111,21.1301989 C35.5111111,21.1301989 31.5822222,20.1663653 31.1288889,18.9059675 C31.1288889,18.9801085 31.0533333,19.0542495 31.0533333,19.0542495 L31.0533333,21.7233273 C31.0533333,21.7233273 31.0533333,21.7233273 31.0533333,21.7974684 C31.0533333,23.1320072 35.1333333,24.244123 40.1955556,24.244123 C45.2577778,24.244123 49.3377778,23.1320072 49.3377778,21.7974684 C49.3377778,21.7974684 49.3377778,21.7974684 49.3377778,21.7233273 L49.3377778,19.0542495 C49.4133333,19.0542495 49.4133333,18.9801085 49.4133333,18.9059675 Z M49.4133333,14.7540687 C48.96,16.0144665 45.0311111,16.9783002 40.2711111,16.9783002 C35.5111111,16.9783002 31.5822222,16.0144665 31.1288889,14.7540687 C31.1288889,14.8282098 31.0533333,14.9023508 31.0533333,14.9023508 L31.0533333,17.5714286 C31.0533333,17.5714286 31.0533333,17.5714286 31.0533333,17.6455696 C31.0533333,18.9801085 35.1333333,20.0922242 40.1955556,20.0922242 C45.2577778,20.0922242 49.3377778,18.9801085 49.3377778,17.6455696 C49.3377778,17.6455696 49.3377778,17.6455696 49.3377778,17.5714286 L49.3377778,14.9023508 C49.4133333,14.8282098 49.4133333,14.8282098 49.4133333,14.7540687 Z M49.4133333,10.60217 C48.96,11.8625678 45.0311111,12.8264014 40.2711111,12.8264014 C35.5111111,12.8264014 31.5822222,11.8625678 31.1288889,10.60217 C31.1288889,10.676311 31.0533333,10.7504521 31.0533333,10.7504521 L31.0533333,13.4195298 C31.0533333,13.4195298 31.0533333,13.4195298 31.0533333,13.4936709 C31.0533333,14.8282098 35.1333333,15.9403255 40.1955556,15.9403255 C45.2577778,15.9403255 49.3377778,14.8282098 49.3377778,13.4936709 C49.3377778,13.4936709 49.3377778,13.4936709 49.3377778,13.4195298 L49.3377778,10.7504521 C49.4133333,10.676311 49.4133333,10.676311 49.4133333,10.60217 Z M49.4133333,6.3761302 C48.96,7.63652803 45.0311111,8.60036166 40.2711111,8.60036166 C35.5111111,8.60036166 31.5822222,7.63652803 31.1288889,6.3761302 C31.1288889,6.45027125 31.0533333,6.5244123 31.0533333,6.5244123 L31.0533333,9.19349005 C31.0533333,9.19349005 31.0533333,9.19349005 31.0533333,9.2676311 C31.0533333,10.60217 35.1333333,11.7142857 40.1955556,11.7142857 C45.2577778,11.7142857 49.3377778,10.60217 49.3377778,9.2676311 C49.3377778,9.2676311 49.3377778,9.2676311 49.3377778,9.19349005 L49.3377778,6.5244123 C49.4133333,6.5244123 49.4133333,6.45027125 49.4133333,6.3761302 Z M40.2711111,0 C35.2844444,0 31.2044444,1.03797468 31.1288889,2.37251356 L31.1288889,5.04159132 C31.1288889,5.04159132 31.1288889,5.04159132 31.1288889,5.11573237 C31.1288889,6.45027125 35.2088889,7.56238698 40.2711111,7.56238698 C45.3333333,7.56238698 49.4133333,6.45027125 49.4133333,5.11573237 C49.4133333,5.11573237 49.4133333,5.11573237 49.4133333,5.04159132 L49.4133333,2.37251356 C49.2622222,1.03797468 45.2577778,0 40.2711111,0 Z" id="Shape"></path>
                        </g>
                    </g>
                </g>
            </g>
        </g>
    </g>
</svg>