<?xml version="1.0" encoding="UTF-8"?>
<svg width="144px" height="107px" viewBox="0 0 144 107" version="1.1" xmlns="http://www.w3.org/2000/svg" xmlns:xlink="http://www.w3.org/1999/xlink">
    <!-- Generator: Sketch 48.2 (47327) - http://www.bohemiancoding.com/sketch -->
    <title>Group 19</title>
    <desc>Created with Sketch.</desc>
    <defs></defs>
    <g id="Desktop-HD-Copy-2" stroke="none" stroke-width="1" fill="none" fill-rule="evenodd" transform="translate(-998.000000, -1921.000000)">
        <g id="Group-22" transform="translate(910.000000, 1921.000000)">
            <g id="Group-19" transform="translate(88.000000, 0.000000)">
                <g id="noun_1245750_cc" fill="#FF9127" opacity="0.152117301">
                    <path d="M72,107 C111.764502,107 144,80.8757511 144,40.9351753 C144,0.994599582 111.764502,0 72,0 C32.235498,0 0,0.994599582 0,40.9351753 C0,80.8757511 32.235498,107 72,107 Z" id="Oval-3"></path>
                </g>
                <g id="Group-40" transform="translate(38.000000, 24.000000)">
                    <g id="noun_123950_cc" fill="#153894" fill-rule="nonzero">
                        <path d="M13.5,0.2997 C6.0441,0.2997 0,6.3438 0,13.8 C0,21.2553 6.0441,27.3 13.5,27.3 C20.9559,27.3 27,21.2553 27,13.8 C27,6.3438 20.9559,0.2997 13.5,0.2997 Z M1.6392,13.7985 C1.6392,13.5063 1.8771,13.2681 2.1705,13.2681 C2.4627,13.2696 2.7,13.5063 2.7,13.7985 C2.7006,14.0922 2.4633,14.3304 2.1696,14.3292 C1.8774,14.3307 1.6392,14.0925 1.6392,13.7985 Z M3.2157,18.5811 C2.9457,18.6939 2.6352,18.5628 2.5239,18.2931 C2.4132,18.0207 2.5434,17.7117 2.8143,17.5989 C3.0855,17.4918 3.3948,17.6199 3.5055,17.8911 C3.6168,18.1605 3.4878,18.4707 3.2157,18.5811 Z M3.54,9.624 C3.4272,9.8952 3.1167,10.023 2.8464,9.9087 C2.5758,9.7971 2.4486,9.4851 2.5617,9.2151 C2.6751,8.9445 2.9865,8.8179 3.2571,8.9304 C3.5256,9.0444 3.6531,9.3543 3.54,9.624 Z M21.1374,5.4141 C21.3432,5.2071 21.6783,5.2053 21.8862,5.412 C22.0926,5.6199 22.0926,5.9544 21.8862,6.1644 C21.6783,6.3687 21.3426,6.3702 21.1374,6.1623 C20.9295,5.9574 20.9289,5.6214 21.1374,5.4141 Z M17.3904,3.1452 C17.5038,2.8746 17.8143,2.7474 18.084,2.8605 C18.3543,2.9742 18.4818,3.2847 18.3687,3.555 C18.255,3.8247 17.9448,3.9522 17.6742,3.8391 C17.4042,3.7251 17.2773,3.4149 17.3904,3.1452 Z M13.5,1.9389 C13.7931,1.9389 14.0304,2.1762 14.0304,2.4693 C14.0304,2.7624 13.7931,2.9997 13.5,2.9997 C13.2069,2.9997 12.9696,2.7624 12.9696,2.4693 C12.9696,2.1762 13.2069,1.9389 13.5,1.9389 Z M9.0069,2.8236 C9.2784,2.712 9.5874,2.8416 9.6993,3.1137 C9.8094,3.384 9.6798,3.6939 9.4089,3.8046 C9.1374,3.9162 8.8284,3.7863 8.7174,3.5145 C8.6064,3.2436 8.7351,2.9343 9.0069,2.8236 Z M5.1138,5.4126 C5.3208,5.2053 5.6562,5.2053 5.8641,5.4126 C6.0705,5.6196 6.0705,5.955 5.8635,6.1623 C5.6565,6.3702 5.3211,6.3702 5.1138,6.1623 C4.9065,5.9559 4.9059,5.6199 5.1138,5.4126 Z M5.8626,22.1847 C5.6568,22.3926 5.3202,22.3926 5.1129,22.1865 C4.9056,21.9786 4.9065,21.6426 5.1129,21.4344 C5.3208,21.2295 5.6562,21.228 5.8626,21.4359 C6.0705,21.6426 6.0711,21.9786 5.8626,22.1847 Z M9.6093,24.4524 C9.498,24.7221 9.1863,24.8502 8.9157,24.7389 C8.6457,24.6243 8.5194,24.3138 8.631,24.0429 C8.7459,23.7744 9.0564,23.6451 9.3252,23.7597 C9.5961,23.8722 9.7242,24.1827 9.6093,24.4524 Z M13.5,25.6608 C13.2063,25.6593 12.9696,25.4211 12.9681,25.1292 C12.9705,24.8367 13.2069,24.5985 13.4994,24.6 C13.7925,24.5985 14.0304,24.8352 14.0289,25.1292 C14.0304,25.4211 13.7925,25.6593 13.5,25.6608 Z M17.9943,24.7764 C17.7216,24.8865 17.4132,24.7569 17.3007,24.4857 C17.1915,24.2145 17.3208,23.904 17.5917,23.7954 C17.8617,23.6823 18.1725,23.8122 18.2817,24.0831 C18.3942,24.3531 18.2646,24.6633 17.9943,24.7764 Z M21.8871,22.1865 C21.6783,22.3929 21.3438,22.3929 21.135,22.1865 C20.9292,21.9786 20.9286,21.6426 21.1368,21.4377 C21.3426,21.2283 21.6783,21.2283 21.8847,21.4359 C22.0929,21.6426 22.0929,21.9786 21.8871,22.1865 Z M13.5,23.1057 C8.3607,23.1057 4.1946,18.9396 4.1946,13.8 C4.1946,8.6604 8.3607,4.4943 13.5,4.4943 C18.6393,4.4943 22.8054,8.6604 22.8054,13.8 C22.8054,18.9396 18.6393,23.1057 13.5,23.1057 Z M23.7855,9.0177 C24.0546,8.9061 24.3648,9.0342 24.4767,9.3054 C24.5871,9.5766 24.4575,9.8856 24.1857,9.999 C23.9151,10.1067 23.6046,9.9789 23.496,9.7074 C23.3832,9.4386 23.5128,9.1284 23.7855,9.0177 Z M24.4395,18.3834 C24.3249,18.6531 24.0153,18.7797 23.7435,18.6681 C23.4747,18.552 23.3466,18.2433 23.4618,17.9736 C23.5725,17.7042 23.8836,17.5758 24.1542,17.6904 C24.4242,17.802 24.5517,18.1122 24.4395,18.3834 Z M24.8289,14.3307 C24.5364,14.3292 24.2985,14.0925 24.3009,13.8 C24.2985,13.5078 24.5358,13.2696 24.8298,13.2711 C25.122,13.2696 25.3593,13.5063 25.3611,13.7985 C25.359,14.0925 25.1226,14.3292 24.8289,14.3307 Z" id="Shape"></path>
                        <path d="M13.5,10.125 C9.9846,10.125 6.9702,11.6409 5.6904,13.8 C6.9708,15.9576 9.9846,17.4741 13.5,17.4741 C17.0157,17.4741 20.0295,15.9576 21.3096,13.8 C20.0298,11.6409 17.0157,10.125 13.5,10.125 Z M13.5,16.2726 C12.1341,16.2726 11.0274,15.1653 11.0274,13.7994 C11.0274,13.3248 11.1678,12.8856 11.3997,12.5088 C11.4321,12.9546 11.7933,13.3089 12.2463,13.3089 C12.7206,13.3089 13.1052,12.924 13.1052,12.4494 C13.1052,12.0177 12.7809,11.6748 12.3657,11.6145 C12.7068,11.4375 13.0887,11.3277 13.5,11.3277 C14.8653,11.3277 15.9726,12.4338 15.9726,13.7994 C15.9726,15.165 14.8653,16.2726 13.5,16.2726 Z" id="Shape"></path>
                    </g>
                    <g id="noun_153546_cc" transform="translate(40.000000, 24.000000)" fill="#153894" fill-rule="nonzero">
                        <path d="M18.5184,3.11146667 C16.6664,3.11146667 13.3333333,2.66693333 10,0 C7.33333333,2.66666667 3.77786667,3.11146667 1.70373333,3.11146667 C0.666666667,3.11146667 0,3 0,3 L0,8.72666667 C0,20.7266667 10,24 10,24 C10,24 20,20.7266667 20,8.72666667 L20,3 C20,3 19.4445333,3.11146667 18.5184,3.11146667 Z M8.75013333,16 L4.5,11.5 L5.75013333,10 L8.75013333,12.1250667 L15,7.5 L16.1250667,8.5 L8.75013333,16 Z" id="Shape"></path>
                    </g>
                    <g id="Group-16" transform="translate(40.000000, 6.000000)">
                        <path d="M5.33508608,5.94070927 C5.29456805,5.97908292 5.24950955,6.01342069 5.1999093,6.04372355 C5.14911923,6.07475333 5.0951556,6.10578264 5.03801678,6.13681241 L4.34283123,6.49647391 L4,5.99294781 L4.69518555,5.63328632 C4.75549875,5.60225654 4.81581105,5.5754585 4.87612425,5.5528914 C4.93643124,5.53032661 4.99832416,5.5134027 5.06180488,5.50211914 C4.99548074,5.49001498 4.93504555,5.47264846 4.87612425,5.44922426 C4.81581105,5.42524671 4.75549875,5.39774346 4.69518555,5.36671368 L4,4.99858956 L4.34283123,4.49083216 L5.03801678,4.86318759 C5.0951556,4.89421736 5.14991282,4.92595188 5.20229007,4.9583921 C5.25465509,4.99082474 5.30146684,5.0267813 5.34272672,5.06626287 C5.30392798,4.96614256 5.28561711,4.85941386 5.28561711,4.74047955 L5.28561711,4 L5.98080265,4 L5.98080265,4.73201693 C5.98080265,4.79125559 5.97683474,4.84908293 5.96889879,4.90550071 C5.96096342,4.96191438 5.94747389,5.01550678 5.92842981,5.0662795 C5.97163126,5.02528645 6.01678886,4.99014988 6.06651046,4.9583921 C6.11730053,4.92595188 6.17126416,4.89421736 6.22840299,4.86318759 L6.92358853,4.49929478 L7.26641976,5.00705219 L6.57123421,5.36671368 C6.50774663,5.39774346 6.44584717,5.4245415 6.38553397,5.4471086 C6.32522714,5.46967333 6.26333438,5.48659721 6.19985384,5.49788077 C6.26628402,5.51000473 6.3274772,5.52736483 6.38791474,5.55077574 C6.44981513,5.57475329 6.51092101,5.60225654 6.57123421,5.63328632 L7.26641976,6.00141044 L6.92358853,6.50493653 L6.22840299,6.13681241 C6.16808978,6.10578264 6.11253898,6.07404812 6.06174892,6.0416079 C6.01096518,6.00917172 5.96335574,5.97321085 5.91891918,5.9337242 C5.96076815,6.03561685 5.98080265,6.14277453 5.98080265,6.25952045 L5.98080265,7 L5.28561711,7 L5.28561711,6.26798307 C5.28561711,6.2115653 5.28958502,6.15444317 5.29752097,6.09661495 C5.30545607,6.03879292 5.31894494,5.98590717 5.33798799,5.93795614 L5.33508608,5.94070927 Z M5.34272672,5.06626287 C5.34273636,5.06627209 5.342746,5.06628132 5.34275565,5.06629055 C5.34201329,5.06442142 5.34127816,5.06254748 5.34055027,5.06066871 L5.34272672,5.06626287 Z M5.92842981,5.0662795 C5.92842842,5.06628318 5.92842704,5.06628687 5.92842566,5.06629055 C5.92929379,5.06545975 5.93016402,5.06463051 5.93103637,5.06380284 L5.92842981,5.0662795 Z M6.19985384,5.49788077 C6.19984713,5.49788196 6.19983372,5.49788077 6.19983372,5.49788077 C6.20133408,5.498151 6.20283399,5.4984212 6.20433347,5.49869495 L6.19985384,5.49788077 Z M10.2462795,5.94070927 C10.2057615,5.97908292 10.160703,6.01342069 10.1111027,6.04372355 C10.0603126,6.07475333 10.006349,6.10578264 9.94921019,6.13681241 L9.25402464,6.49647391 L8.91119341,5.99294781 L9.60637896,5.63328632 C9.66669216,5.60225654 9.72700446,5.5754585 9.78731766,5.5528914 C9.84762465,5.53032661 9.90951758,5.5134027 9.97299829,5.50211914 C9.90667415,5.49001498 9.84623896,5.47264846 9.78731766,5.44922426 C9.72700446,5.42524671 9.66669216,5.39774346 9.60637896,5.36671368 L8.91119341,4.99858956 L9.25402464,4.49083216 L9.94921019,4.86318759 C10.006349,4.89421736 10.0611062,4.92595188 10.1134835,4.9583921 C10.1658485,4.99082474 10.2126602,5.0267813 10.2539201,5.06626287 C10.2151214,4.96614256 10.1968105,4.85941386 10.1968105,4.74047955 L10.1968105,4 L10.8919961,4 L10.8919961,4.73201693 C10.8919961,4.79125559 10.8880282,4.84908293 10.8800922,4.90550071 C10.8721568,4.96191438 10.8586673,5.01550678 10.8396232,5.0662795 C10.8828247,5.02528645 10.9279823,4.99014988 10.9777039,4.9583921 C11.0284939,4.92595188 11.0824576,4.89421736 11.1395964,4.86318759 L11.8347819,4.49929478 L12.1776132,5.00705219 L11.4824276,5.36671368 C11.41894,5.39774346 11.3570406,5.4245415 11.2967274,5.4471086 C11.2364205,5.46967333 11.1745278,5.48659721 11.1110473,5.49788077 C11.1774774,5.51000473 11.2386706,5.52736483 11.2991082,5.55077574 C11.3610085,5.57475329 11.4221144,5.60225654 11.4824276,5.63328632 L12.1776132,6.00141044 L11.8347819,6.50493653 L11.1395964,6.13681241 C11.0792832,6.10578264 11.0237324,6.07404812 10.9729423,6.0416079 C10.9221586,6.00917172 10.8745492,5.97321085 10.8301126,5.9337242 C10.8719616,6.03561685 10.8919961,6.14277453 10.8919961,6.25952045 L10.8919961,7 L10.1968105,7 L10.1968105,6.26798307 C10.1968105,6.2115653 10.2007784,6.15444317 10.2087144,6.09661495 C10.2166495,6.03879292 10.2301384,5.98590717 10.2491814,5.93795614 L10.2462795,5.94070927 Z M10.2539201,5.06626287 C10.2539298,5.06627209 10.2539394,5.06628132 10.2539491,5.06629055 C10.2532067,5.06442142 10.2524716,5.06254748 10.2517437,5.06066871 L10.2539201,5.06626287 Z M10.8396232,5.0662795 C10.8396218,5.06628318 10.8396205,5.06628687 10.8396191,5.06629055 C10.8404872,5.06545975 10.8413574,5.06463051 10.8422298,5.06380284 L10.8396232,5.0662795 Z M11.1110473,5.49788077 C11.1110405,5.49788196 11.1110271,5.49788077 11.1110271,5.49788077 C11.1125275,5.498151 11.1140274,5.4984212 11.1155269,5.49869495 L11.1110473,5.49788077 Z M15.1574729,5.94070927 C15.1169549,5.97908292 15.0718964,6.01342069 15.0222961,6.04372355 C14.9715061,6.07475333 14.9175424,6.10578264 14.8604036,6.13681241 L14.1652181,6.49647391 L13.8223868,5.99294781 L14.5175724,5.63328632 C14.5778856,5.60225654 14.6381979,5.5754585 14.6985111,5.5528914 C14.7588181,5.53032661 14.820711,5.5134027 14.8841917,5.50211914 C14.8178676,5.49001498 14.7574324,5.47264846 14.6985111,5.44922426 C14.6381979,5.42524671 14.5778856,5.39774346 14.5175724,5.36671368 L13.8223868,4.99858956 L14.1652181,4.49083216 L14.8604036,4.86318759 C14.9175424,4.89421736 14.9722996,4.92595188 15.0246769,4.9583921 C15.0770419,4.99082474 15.1238537,5.0267813 15.1651135,5.06626287 C15.1263148,4.96614256 15.1080039,4.85941386 15.1080039,4.74047955 L15.1080039,4 L15.8031895,4 L15.8031895,4.73201693 C15.8031895,4.79125559 15.7992216,4.84908293 15.7912856,4.90550071 C15.7833502,4.96191438 15.7698607,5.01550678 15.7508166,5.0662795 C15.7940181,5.02528645 15.8391757,4.99014988 15.8888973,4.9583921 C15.9396874,4.92595188 15.993651,4.89421736 16.0507898,4.86318759 L16.7459754,4.49929478 L17.0888066,5.00705219 L16.393621,5.36671368 C16.3301335,5.39774346 16.268234,5.4245415 16.2079208,5.4471086 C16.147614,5.46967333 16.0857212,5.48659721 16.0222407,5.49788077 C16.0886708,5.51000473 16.149864,5.52736483 16.2103016,5.55077574 C16.272202,5.57475329 16.3333078,5.60225654 16.393621,5.63328632 L17.0888066,6.00141044 L16.7459754,6.50493653 L16.0507898,6.13681241 C15.9904766,6.10578264 15.9349258,6.07404812 15.8841357,6.0416079 C15.833352,6.00917172 15.7857426,5.97321085 15.741306,5.9337242 C15.783155,6.03561685 15.8031895,6.14277453 15.8031895,6.25952045 L15.8031895,7 L15.1080039,7 L15.1080039,6.26798307 C15.1080039,6.2115653 15.1119718,6.15444317 15.1199078,6.09661495 C15.1278429,6.03879292 15.1413318,5.98590717 15.1603748,5.93795614 L15.1574729,5.94070927 Z M15.1651135,5.06626287 C15.1651232,5.06627209 15.1651328,5.06628132 15.1651425,5.06629055 C15.1644001,5.06442142 15.163665,5.06254748 15.1629371,5.06066871 L15.1651135,5.06626287 Z M15.7508166,5.0662795 C15.7508153,5.06628318 15.7508139,5.06628687 15.7508125,5.06629055 C15.7516806,5.06545975 15.7525509,5.06463051 15.7534232,5.06380284 L15.7508166,5.0662795 Z M16.0222407,5.49788077 C16.022234,5.49788196 16.0222205,5.49788077 16.0222205,5.49788077 C16.0237209,5.498151 16.0252208,5.4984212 16.0267203,5.49869495 L16.0222407,5.49788077 Z M15.741306,5.9337242 C15.7413005,5.93371929 15.7412894,5.93370945 15.7412894,5.93370945 C15.7418925,5.93515228 15.7424911,5.93659723 15.7430854,5.93804428 L15.741306,5.9337242 Z M20.0686663,5.94070927 C20.0281483,5.97908292 19.9830898,6.01342069 19.9334895,6.04372355 C19.8826995,6.07475333 19.8287358,6.10578264 19.771597,6.13681241 L19.0764115,6.49647391 L18.7335802,5.99294781 L19.4287658,5.63328632 C19.489079,5.60225654 19.5493913,5.5754585 19.6097045,5.5528914 C19.6700115,5.53032661 19.7319044,5.5134027 19.7953851,5.50211914 C19.729061,5.49001498 19.6686258,5.47264846 19.6097045,5.44922426 C19.5493913,5.42524671 19.489079,5.39774346 19.4287658,5.36671368 L18.7335802,4.99858956 L19.0764115,4.49083216 L19.771597,4.86318759 C19.8287358,4.89421736 19.8834931,4.92595188 19.9358703,4.9583921 C19.9882353,4.99082474 20.0350471,5.0267813 20.076307,5.06626287 C20.0375082,4.96614256 20.0191973,4.85941386 20.0191973,4.74047955 L20.0191973,4 L20.7143829,4 L20.7143829,4.73201693 C20.7143829,4.79125559 20.710415,4.84908293 20.702479,4.90550071 C20.6945437,4.96191438 20.6810541,5.01550678 20.66201,5.0662795 C20.7052115,5.02528645 20.7503691,4.99014988 20.8000907,4.9583921 C20.8508808,4.92595188 20.9048444,4.89421736 20.9619832,4.86318759 L21.6571688,4.49929478 L22,5.00705219 L21.3048145,5.36671368 C21.2413269,5.39774346 21.1794274,5.4245415 21.1191142,5.4471086 C21.0588074,5.46967333 20.9969146,5.48659721 20.9334341,5.49788077 C20.9998643,5.51000473 21.0610574,5.52736483 21.121495,5.55077574 C21.1833954,5.57475329 21.2445013,5.60225654 21.3048145,5.63328632 L22,6.00141044 L21.6571688,6.50493653 L20.9619832,6.13681241 C20.90167,6.10578264 20.8461192,6.07404812 20.7953292,6.0416079 C20.7445454,6.00917172 20.696936,5.97321085 20.6524994,5.9337242 C20.6943484,6.03561685 20.7143829,6.14277453 20.7143829,6.25952045 L20.7143829,7 L20.0191973,7 L20.0191973,6.26798307 C20.0191973,6.2115653 20.0231653,6.15444317 20.0311012,6.09661495 C20.0390363,6.03879292 20.0525252,5.98590717 20.0715682,5.93795614 L20.0686663,5.94070927 Z M20.076307,5.06626287 C20.0763166,5.06627209 20.0763262,5.06628132 20.0763359,5.06629055 C20.0755935,5.06442142 20.0748584,5.06254748 20.0741305,5.06066871 L20.076307,5.06626287 Z M20.66201,5.0662795 C20.6620087,5.06628318 20.6620073,5.06628687 20.6620059,5.06629055 C20.662874,5.06545975 20.6637443,5.06463051 20.6646166,5.06380284 L20.66201,5.0662795 Z M20.9334341,5.49788077 C20.9334274,5.49788196 20.933414,5.49788077 20.933414,5.49788077 C20.9349143,5.498151 20.9364142,5.4984212 20.9379137,5.49869495 L20.9334341,5.49788077 Z M20.6524994,5.9337242 C20.6524939,5.93371929 20.6524828,5.93370945 20.6524828,5.93370945 C20.6530859,5.93515228 20.6536845,5.93659723 20.6542788,5.93804428 L20.6524994,5.9337242 Z" id="****" fill="#123496"></path>
                        <rect id="Rectangle-6" stroke="#153894" x="0.5" y="0.5" width="25" height="10" rx="5"></rect>
                    </g>
                    <g id="noun_410657_cc" transform="translate(14.000000, 34.000000)" fill="#153894" fill-rule="nonzero">
                        <g id="Group">
                            <path d="M10.8319091,12.1074545 C10.6510909,11.466 10.2338182,10.9358182 9.657,10.6167273 C9.09163636,10.3041818 8.43954545,10.2313636 7.82181818,10.413 C6.53563636,10.791 5.79027273,12.1614545 6.15845455,13.4697273 C7.06009091,16.6720909 10.2460909,19.5790909 13.2430909,22.0000909 C13.3191818,22.0614545 13.41,22.0909091 13.5,22.0909091 C13.6194545,22.0909091 13.7372727,22.0393636 13.8190909,21.9387273 C13.9606364,21.7628182 13.9328182,21.5050909 13.7577273,21.3635455 C10.8605455,19.0235455 7.78581818,16.2286364 6.94636364,13.2471818 C6.69845455,12.3692727 7.19509091,11.4496364 8.05172727,11.1976364 C8.46,11.0773636 8.88872727,11.1264545 9.261,11.3326364 C9.64472727,11.5453636 9.92290909,11.8988182 10.044,12.3291818 C10.5970909,14.2879091 13.4239091,16.8897273 15.6984545,18.7265455 C15.8735455,18.8697273 16.1312727,18.8419091 16.2736364,18.666 C16.416,18.4900909 16.3881818,18.2323636 16.2122727,18.0908182 C13.1277273,15.5994545 11.2172727,13.4746364 10.8319091,12.1074545 Z" id="Shape"></path>
                            <path d="M14.688,10.8572727 C13.6399091,7.47490909 10.0840909,5.52272727 6.72709091,6.50209091 C5.06372727,6.99054545 3.68672727,8.10981818 2.85054545,9.65290909 C2.00045455,11.2189091 1.80081818,12.9338182 2.27209091,14.6102727 C3.00763636,17.2186364 1.29354545,18.5154545 0.284727273,18.837 C0.0695454545,18.9057273 -0.0490909091,19.1356364 0.0188181818,19.3508182 C0.0744545455,19.5250909 0.235636364,19.6363636 0.409090909,19.6363636 C0.45,19.6363636 0.491727273,19.6298182 0.531818182,19.6175455 C2.29909091,19.0538182 3.84381818,17.1777273 3.05836364,14.3885455 C2.646,12.9215455 2.82190909,11.4185455 3.56809091,10.0431818 C4.30036364,8.69318182 5.50390909,7.71463636 6.95536364,7.28836364 C9.909,6.42927273 13.0336364,8.16627273 13.9254545,11.1624545 C13.9344545,11.1935455 13.9475455,11.2238182 13.9639091,11.2516364 C14.0048182,11.322 14.1144545,11.5101818 17.3258182,14.2216364 C17.4992727,14.3664545 17.757,14.3443636 17.9026364,14.1725455 C18.0482727,13.9999091 18.027,13.7421818 17.8543636,13.5965455 C16.4650909,12.4224545 14.9089091,11.0806364 14.688,10.8572727 Z" id="Shape"></path>
                            <path d="M12.7734545,11.5355455 C12.4420909,10.359 11.6779091,9.38945455 10.6216364,8.80445455 C9.58827273,8.23172727 8.39536364,8.09754545 7.26218182,8.42890909 C4.98027273,9.099 3.66790909,11.5003636 4.20954545,14.0146364 C5.238,18.7977273 4.09663636,20.1878182 1.92109091,20.8824545 C1.70590909,20.9511818 1.58727273,21.1810909 1.65518182,21.3970909 C1.71081818,21.5705455 1.872,21.6818182 2.04545455,21.6818182 C2.08636364,21.6818182 2.12890909,21.6752727 2.169,21.6613636 C5.175,20.7024545 5.99727273,18.4360909 5.00890909,13.8411818 C4.55890909,11.7499091 5.62663636,9.76090909 7.49127273,9.21354545 C8.41172727,8.946 9.38209091,9.054 10.2248182,9.51954545 C11.088,9.99818182 11.7130909,10.7926364 11.9855455,11.7564545 C12.2187273,12.5844545 12.7595455,13.6464545 16.515,16.6802727 C16.6917273,16.8234545 16.9486364,16.7956364 17.091,16.6197273 C17.2325455,16.4438182 17.2047273,16.1860909 17.0296364,16.0445455 C13.1620909,12.9199091 12.9190909,12.0534545 12.7734545,11.5355455 Z" id="Shape"></path>
                            <path d="M14.256,18.7977273 C12.5149091,17.4542727 9.60136364,15.2067273 8.88872727,12.6785455 C8.82736364,12.4609091 8.60236364,12.3349091 8.38390909,12.3954545 C8.16627273,12.4568182 8.03945455,12.6826364 8.10081818,12.9002727 C8.88709091,15.6886364 11.9348182,18.0400909 13.7560909,19.4449091 C14.238,19.8163636 14.6544545,20.1379091 14.8442727,20.3318182 C14.9244545,20.4136364 15.03,20.4545455 15.1363636,20.4545455 C15.2394545,20.4545455 15.3425455,20.4152727 15.4227273,20.3391818 C15.5847273,20.1812727 15.5871818,19.9219091 15.4292727,19.7607273 C15.1993636,19.5259091 14.7829091,19.2043636 14.256,18.7977273 Z" id="Shape"></path>
                            <path d="M11.7466364,22.5139091 C11.1395455,21.6940909 10.2207273,20.4545455 9,20.4545455 C8.68009091,20.4545455 8.38636364,20.583 8.14990909,20.826 C7.31372727,21.6875455 7.35627273,23.8990909 7.36363636,24.1486364 C7.371,24.3703636 7.55263636,24.5454545 7.77272727,24.5454545 C7.77681818,24.5454545 7.78090909,24.5454545 7.785,24.5454545 C8.01081818,24.5380909 8.18836364,24.3490909 8.18181818,24.1240909 C8.15809091,23.3149091 8.28736364,21.8585455 8.73736364,21.3954545 C8.84372727,21.2866364 8.93290909,21.2727273 9,21.2727273 C9.80836364,21.2727273 10.5799091,22.3126364 11.0896364,23.0015455 C11.2778182,23.2551818 11.4398182,23.4711818 11.5707273,23.6045455 C11.7294545,23.7665455 11.9888182,23.7673636 12.15,23.6110909 C12.3111818,23.4531818 12.3136364,23.1938182 12.1557273,23.0326364 C12.0436364,22.9180909 11.9078182,22.7315455 11.7466364,22.5139091 Z" id="Shape"></path>
                            <path d="M6.01363636,17.1998182 C5.79763636,17.2677273 5.67736364,17.4968182 5.74527273,17.7128182 C6.16745455,19.0628182 5.32309091,22.4787273 3.96163636,22.9295455 C3.74727273,23.0007273 3.63109091,23.2322727 3.70227273,23.4466364 C3.75954545,23.6184545 3.91909091,23.7272727 4.09090909,23.7272727 C4.13345455,23.7272727 4.17681818,23.7207273 4.21854545,23.706 C6.09381818,23.085 7.06909091,19.2027273 6.52581818,17.4681818 C6.45872727,17.2521818 6.23045455,17.1310909 6.01363636,17.1998182 Z" id="Shape"></path>
                            <path d="M0.409090909,13.1620909 C0.634909091,13.1620909 0.818181818,12.9788182 0.818181818,12.753 C0.818181818,8.42809091 4.26190909,4.90909091 8.49436364,4.90909091 C12.654,4.90909091 14.1054545,7.24336364 15.2705455,9.11945455 C15.9381818,10.1929091 16.515,11.1207273 17.4616364,11.4340909 C17.6768182,11.5069091 17.9083636,11.3899091 17.9787273,11.1747273 C18.0499091,10.9595455 17.9337273,10.7288182 17.7193636,10.6576364 C17.0541818,10.4367273 16.5493636,9.62590909 15.966,8.68745455 C14.76,6.74754545 13.1080909,4.09090909 8.49436364,4.09090909 C3.81109091,4.09090909 0,7.97645455 0,12.753 C0,12.9788182 0.183272727,13.1620909 0.409090909,13.1620909 Z" id="Shape"></path>
                            <path d="M0.818181818,16.7727273 C0.886909091,16.7727273 0.957272727,16.7555455 1.02190909,16.7187273 C1.21827273,16.6058182 1.28536364,16.3554545 1.17327273,16.1599091 C1.03581818,15.9201818 0.818181818,15.4300909 0.818181818,15.1363636 C0.818181818,14.9105455 0.634909091,14.7272727 0.409090909,14.7272727 C0.183272727,14.7272727 0,14.9105455 0,15.1363636 C0,15.7442727 0.416454545,16.4847273 0.463090909,16.5673636 C0.539181818,16.6990909 0.676636364,16.7727273 0.818181818,16.7727273 Z" id="Shape"></path>
                            <path d="M0.681545455,5.49163636 C0.875454545,5.60781818 1.12663636,5.54318182 1.242,5.34927273 C1.68872727,4.59818182 3.88227273,2.45454545 7.965,2.45454545 C11.8873636,2.45454545 14.6871818,4.49754545 15.1936364,5.34927273 C15.2697273,5.47854545 15.4063636,5.54972727 15.5454545,5.54972727 C15.6166364,5.54972727 15.6886364,5.53090909 15.7540909,5.49163636 C15.948,5.37627273 16.0118182,5.12509091 15.8964545,4.93118182 C15.2132727,3.78245455 12.1851818,1.63636364 7.965,1.63636364 C3.48054545,1.63636364 1.08409091,4.01481818 0.539181818,4.93118182 C0.423818182,5.12509091 0.487636364,5.37627273 0.681545455,5.49163636 Z" id="Shape"></path>
                            <path d="M3.61145455,1.81227273 C3.84136364,1.70754545 4.03609091,1.60527273 4.221,1.50872727 C4.98763636,1.10781818 5.54072727,0.818181818 7.98954545,0.818181818 C10.7378182,0.818181818 11.7499091,1.20190909 12.8225455,1.60936364 C13.0156364,1.68218182 13.2087273,1.75581818 13.4124545,1.827 C13.4574545,1.84254545 13.5032727,1.84990909 13.5482727,1.84990909 C13.7168182,1.84990909 13.8747273,1.74436364 13.9344545,1.57581818 C14.0089091,1.36227273 13.8976364,1.12909091 13.6840909,1.05463636 C13.4869091,0.985090909 13.2995455,0.913909091 13.113,0.843545455 C12.0190909,0.428727273 10.8875455,0 7.98954545,0 C5.33945455,0 4.67836364,0.346090909 3.84136364,0.783 C3.66872727,0.873818182 3.48627273,0.969545455 3.27109091,1.06772727 C3.06572727,1.16181818 2.97490909,1.40481818 3.069,1.61018182 C3.16309091,1.81554545 3.40527273,1.90472727 3.61145455,1.81227273 Z" id="Shape"></path>
                            <path d="M17.2006364,8.71281818 C17.2554545,8.88790909 17.4166364,9 17.5909091,9 C17.631,9 17.6727273,8.99427273 17.712,8.98118182 C17.928,8.91409091 18.0482727,8.68418182 17.9803636,8.469 C17.7144545,7.62054545 16.956,6.42927273 16.9240909,6.37854545 C16.8021818,6.18872727 16.5493636,6.13309091 16.3595455,6.25418182 C16.1689091,6.37527273 16.1140909,6.62890909 16.2351818,6.81872727 C16.2425455,6.83018182 16.9674545,7.96909091 17.2006364,8.71281818 Z" id="Shape"></path>
                        </g>
                    </g>
                </g>
            </g>
        </g>
    </g>
</svg>